G04 #@! TF.GenerationSoftware,KiCad,Pcbnew,9.0.2*
G04 #@! TF.CreationDate,2025-09-10T14:09:23+05:30*
G04 #@! TF.ProjectId,V2DesignESP32PCB,56324465-7369-4676-9e45-535033325043,rev?*
G04 #@! TF.SameCoordinates,Original*
G04 #@! TF.FileFunction,Legend,Bot*
G04 #@! TF.FilePolarity,Positive*
%FSLAX46Y46*%
G04 Gerber Fmt 4.6, Leading zero omitted, Abs format (unit mm)*
G04 Created by KiCad (PCBNEW 9.0.2) date 2025-09-10 14:09:23*
%MOMM*%
%LPD*%
G01*
G04 APERTURE LIST*
G04 Aperture macros list*
%AMRoundRect*
0 Rectangle with rounded corners*
0 $1 Rounding radius*
0 $2 $3 $4 $5 $6 $7 $8 $9 X,Y pos of 4 corners*
0 Add a 4 corners polygon primitive as box body*
4,1,4,$2,$3,$4,$5,$6,$7,$8,$9,$2,$3,0*
0 Add four circle primitives for the rounded corners*
1,1,$1+$1,$2,$3*
1,1,$1+$1,$4,$5*
1,1,$1+$1,$6,$7*
1,1,$1+$1,$8,$9*
0 Add four rect primitives between the rounded corners*
20,1,$1+$1,$2,$3,$4,$5,0*
20,1,$1+$1,$4,$5,$6,$7,0*
20,1,$1+$1,$6,$7,$8,$9,0*
20,1,$1+$1,$8,$9,$2,$3,0*%
G04 Aperture macros list end*
%ADD10C,0.150000*%
%ADD11C,4.000000*%
%ADD12RoundRect,0.250000X0.600000X0.750000X-0.600000X0.750000X-0.600000X-0.750000X0.600000X-0.750000X0*%
%ADD13O,1.700000X2.000000*%
%ADD14C,1.700000*%
%ADD15RoundRect,0.250000X-0.600000X-0.725000X0.600000X-0.725000X0.600000X0.725000X-0.600000X0.725000X0*%
%ADD16O,1.700000X1.950000*%
%ADD17RoundRect,0.250000X-0.725000X0.600000X-0.725000X-0.600000X0.725000X-0.600000X0.725000X0.600000X0*%
%ADD18O,1.950000X1.700000*%
%ADD19R,4.600000X2.000000*%
%ADD20O,4.200000X2.000000*%
%ADD21O,2.000000X4.200000*%
%ADD22RoundRect,0.250000X-0.600000X-0.750000X0.600000X-0.750000X0.600000X0.750000X-0.600000X0.750000X0*%
%ADD23R,1.700000X1.700000*%
%ADD24C,0.650000*%
%ADD25O,1.000000X2.100000*%
%ADD26O,1.000000X1.800000*%
%ADD27RoundRect,0.250000X0.725000X-0.600000X0.725000X0.600000X-0.725000X0.600000X-0.725000X-0.600000X0*%
G04 APERTURE END LIST*
D10*
X174779887Y-124267438D02*
X174851316Y-124219819D01*
X174851316Y-124219819D02*
X174958458Y-124219819D01*
X174958458Y-124219819D02*
X175065601Y-124267438D01*
X175065601Y-124267438D02*
X175137030Y-124362676D01*
X175137030Y-124362676D02*
X175172744Y-124457914D01*
X175172744Y-124457914D02*
X175208458Y-124648390D01*
X175208458Y-124648390D02*
X175208458Y-124791247D01*
X175208458Y-124791247D02*
X175172744Y-124981723D01*
X175172744Y-124981723D02*
X175137030Y-125076961D01*
X175137030Y-125076961D02*
X175065601Y-125172200D01*
X175065601Y-125172200D02*
X174958458Y-125219819D01*
X174958458Y-125219819D02*
X174887030Y-125219819D01*
X174887030Y-125219819D02*
X174779887Y-125172200D01*
X174779887Y-125172200D02*
X174744173Y-125124580D01*
X174744173Y-125124580D02*
X174744173Y-124791247D01*
X174744173Y-124791247D02*
X174887030Y-124791247D01*
X174422744Y-125219819D02*
X174422744Y-124219819D01*
X174422744Y-124219819D02*
X173994173Y-125219819D01*
X173994173Y-125219819D02*
X173994173Y-124219819D01*
X173637030Y-125219819D02*
X173637030Y-124219819D01*
X173637030Y-124219819D02*
X173458459Y-124219819D01*
X173458459Y-124219819D02*
X173351316Y-124267438D01*
X173351316Y-124267438D02*
X173279887Y-124362676D01*
X173279887Y-124362676D02*
X173244173Y-124457914D01*
X173244173Y-124457914D02*
X173208459Y-124648390D01*
X173208459Y-124648390D02*
X173208459Y-124791247D01*
X173208459Y-124791247D02*
X173244173Y-124981723D01*
X173244173Y-124981723D02*
X173279887Y-125076961D01*
X173279887Y-125076961D02*
X173351316Y-125172200D01*
X173351316Y-125172200D02*
X173458459Y-125219819D01*
X173458459Y-125219819D02*
X173637030Y-125219819D01*
X171922744Y-124267438D02*
X171994173Y-124219819D01*
X171994173Y-124219819D02*
X172101315Y-124219819D01*
X172101315Y-124219819D02*
X172208458Y-124267438D01*
X172208458Y-124267438D02*
X172279887Y-124362676D01*
X172279887Y-124362676D02*
X172315601Y-124457914D01*
X172315601Y-124457914D02*
X172351315Y-124648390D01*
X172351315Y-124648390D02*
X172351315Y-124791247D01*
X172351315Y-124791247D02*
X172315601Y-124981723D01*
X172315601Y-124981723D02*
X172279887Y-125076961D01*
X172279887Y-125076961D02*
X172208458Y-125172200D01*
X172208458Y-125172200D02*
X172101315Y-125219819D01*
X172101315Y-125219819D02*
X172029887Y-125219819D01*
X172029887Y-125219819D02*
X171922744Y-125172200D01*
X171922744Y-125172200D02*
X171887030Y-125124580D01*
X171887030Y-125124580D02*
X171887030Y-124791247D01*
X171887030Y-124791247D02*
X172029887Y-124791247D01*
X171565601Y-125219819D02*
X171565601Y-124219819D01*
X171565601Y-124219819D02*
X171137030Y-125219819D01*
X171137030Y-125219819D02*
X171137030Y-124219819D01*
X170779887Y-125219819D02*
X170779887Y-124219819D01*
X170779887Y-124219819D02*
X170601316Y-124219819D01*
X170601316Y-124219819D02*
X170494173Y-124267438D01*
X170494173Y-124267438D02*
X170422744Y-124362676D01*
X170422744Y-124362676D02*
X170387030Y-124457914D01*
X170387030Y-124457914D02*
X170351316Y-124648390D01*
X170351316Y-124648390D02*
X170351316Y-124791247D01*
X170351316Y-124791247D02*
X170387030Y-124981723D01*
X170387030Y-124981723D02*
X170422744Y-125076961D01*
X170422744Y-125076961D02*
X170494173Y-125172200D01*
X170494173Y-125172200D02*
X170601316Y-125219819D01*
X170601316Y-125219819D02*
X170779887Y-125219819D01*
X169529887Y-124219819D02*
X169065601Y-124219819D01*
X169065601Y-124219819D02*
X169315601Y-124600771D01*
X169315601Y-124600771D02*
X169208458Y-124600771D01*
X169208458Y-124600771D02*
X169137030Y-124648390D01*
X169137030Y-124648390D02*
X169101315Y-124696009D01*
X169101315Y-124696009D02*
X169065601Y-124791247D01*
X169065601Y-124791247D02*
X169065601Y-125029342D01*
X169065601Y-125029342D02*
X169101315Y-125124580D01*
X169101315Y-125124580D02*
X169137030Y-125172200D01*
X169137030Y-125172200D02*
X169208458Y-125219819D01*
X169208458Y-125219819D02*
X169422744Y-125219819D01*
X169422744Y-125219819D02*
X169494172Y-125172200D01*
X169494172Y-125172200D02*
X169529887Y-125124580D01*
X168851315Y-124219819D02*
X168601315Y-125219819D01*
X168601315Y-125219819D02*
X168351315Y-124219819D01*
X167529886Y-124696009D02*
X167279886Y-124696009D01*
X167172743Y-125219819D02*
X167529886Y-125219819D01*
X167529886Y-125219819D02*
X167529886Y-124219819D01*
X167529886Y-124219819D02*
X167172743Y-124219819D01*
X166851315Y-125219819D02*
X166851315Y-124219819D01*
X166851315Y-124219819D02*
X166422744Y-125219819D01*
X166422744Y-125219819D02*
X166422744Y-124219819D01*
X165494172Y-124838866D02*
X164922744Y-124838866D01*
X165208458Y-125219819D02*
X165208458Y-124457914D01*
X164208458Y-124219819D02*
X164565601Y-124219819D01*
X164565601Y-124219819D02*
X164601315Y-124696009D01*
X164601315Y-124696009D02*
X164565601Y-124648390D01*
X164565601Y-124648390D02*
X164494173Y-124600771D01*
X164494173Y-124600771D02*
X164315601Y-124600771D01*
X164315601Y-124600771D02*
X164244173Y-124648390D01*
X164244173Y-124648390D02*
X164208458Y-124696009D01*
X164208458Y-124696009D02*
X164172744Y-124791247D01*
X164172744Y-124791247D02*
X164172744Y-125029342D01*
X164172744Y-125029342D02*
X164208458Y-125124580D01*
X164208458Y-125124580D02*
X164244173Y-125172200D01*
X164244173Y-125172200D02*
X164315601Y-125219819D01*
X164315601Y-125219819D02*
X164494173Y-125219819D01*
X164494173Y-125219819D02*
X164565601Y-125172200D01*
X164565601Y-125172200D02*
X164601315Y-125124580D01*
X163958458Y-124219819D02*
X163708458Y-125219819D01*
X163708458Y-125219819D02*
X163458458Y-124219819D01*
%LPC*%
D11*
G04 #@! TO.C,H4*
X192700000Y-66000000D03*
G04 #@! TD*
G04 #@! TO.C,H1*
X114000000Y-124900000D03*
G04 #@! TD*
D12*
G04 #@! TO.C,J21*
X125300000Y-63950000D03*
D13*
X122800000Y-63950000D03*
G04 #@! TD*
D14*
G04 #@! TO.C,*
X174400000Y-90400000D03*
G04 #@! TD*
D15*
G04 #@! TO.C,J17*
X164400000Y-127500000D03*
D16*
X166900000Y-127500000D03*
X169400000Y-127500000D03*
X171900000Y-127500000D03*
X174400000Y-127500000D03*
G04 #@! TD*
D11*
G04 #@! TO.C,H3*
X114200000Y-66200000D03*
G04 #@! TD*
D17*
G04 #@! TO.C,J28*
X120000000Y-108550000D03*
D18*
X120000000Y-111050000D03*
X120000000Y-113550000D03*
G04 #@! TD*
D11*
G04 #@! TO.C,H2*
X192900000Y-124700000D03*
G04 #@! TD*
D17*
G04 #@! TO.C,J25*
X112000000Y-108500000D03*
D18*
X112000000Y-111000000D03*
X112000000Y-113500000D03*
G04 #@! TD*
D19*
G04 #@! TO.C,J20*
X182750000Y-116350000D03*
D20*
X182750000Y-122650000D03*
D21*
X187550000Y-119250000D03*
G04 #@! TD*
D22*
G04 #@! TO.C,J23*
X171650000Y-69150000D03*
D13*
X174150000Y-69150000D03*
G04 #@! TD*
D17*
G04 #@! TO.C,J18*
X112000000Y-76500000D03*
D18*
X112000000Y-79000000D03*
X112000000Y-81500000D03*
G04 #@! TD*
D23*
G04 #@! TO.C,*
X171825000Y-90500000D03*
G04 #@! TD*
D17*
G04 #@! TO.C,J27*
X119750000Y-76450000D03*
D18*
X119750000Y-78950000D03*
X119750000Y-81450000D03*
G04 #@! TD*
D24*
G04 #@! TO.C,JUSB1*
X148910000Y-123985000D03*
X154690000Y-123985000D03*
D25*
X147480000Y-123485000D03*
D26*
X147480000Y-127665000D03*
D25*
X156120000Y-123485000D03*
D26*
X156120000Y-127665000D03*
G04 #@! TD*
D27*
G04 #@! TO.C,J26*
X194700000Y-92100000D03*
D18*
X194700000Y-89600000D03*
X194700000Y-87100000D03*
X194700000Y-84600000D03*
X194700000Y-82100000D03*
X194700000Y-79600000D03*
X194700000Y-77100000D03*
G04 #@! TD*
D22*
G04 #@! TO.C,J22*
X122500000Y-126000000D03*
D13*
X125000000Y-126000000D03*
G04 #@! TD*
D17*
G04 #@! TO.C,J10*
X112000000Y-91500000D03*
D18*
X112000000Y-94000000D03*
X112000000Y-96500000D03*
X112000000Y-99000000D03*
G04 #@! TD*
D22*
G04 #@! TO.C,*
X161250000Y-106850000D03*
G04 #@! TD*
G04 #@! TO.C,J29*
X133800000Y-68650000D03*
D13*
X136300000Y-68650000D03*
G04 #@! TD*
%LPD*%
M02*
