M48
; DRILL file {KiCad 9.0.2} date 2025-09-10T14:09:24+0530
; FORMAT={-:-/ absolute / metric / decimal}
; #@! TF.CreationDate,2025-09-10T14:09:24+05:30
; #@! TF.GenerationSoftware,Kicad,Pcbnew,9.0.2
; #@! TF.FileFunction,Plated,1,4,PTH
FMAT,2
METRIC
; #@! TA.AperFunction,Plated,PTH,ComponentDrill
T1C0.200
; #@! TA.AperFunction,Plated,PTH,ViaDrill
T2C0.300
; #@! TA.AperFunction,Plated,PTH,ViaDrill
T3C0.400
; #@! TA.AperFunction,Plated,PTH,ComponentDrill
T4C0.600
; #@! TA.AperFunction,Plated,PTH,ComponentDrill
T5C0.950
; #@! TA.AperFunction,Plated,PTH,ComponentDrill
T6C1.000
%
G90
G05
T1
X151.85Y-74.562
X151.85Y-76.087
X152.612Y-73.8
X152.612Y-75.325
X152.612Y-76.85
X153.375Y-74.562
X153.375Y-76.087
X154.137Y-73.8
X154.137Y-75.325
X154.137Y-76.85
X154.9Y-74.562
X154.9Y-76.087
T2
X111.5Y-71.8
X111.6Y-118.2
X112.55Y-86.9
X113.5Y-71.8
X113.75Y-103.35
X114.8Y-117.5
X115.75Y-73.5
X116.85Y-118.3
X117.9Y-77.85
X118.0Y-80.1
X118.5Y-87.55
X118.7Y-98.9
X119.15Y-96.45
X119.45Y-71.9
X119.45Y-118.95
X120.0Y-93.2
X121.35Y-98.65
X127.1Y-108.1
X127.15Y-118.65
X127.5Y-72.6
X128.25Y-70.9
X128.35Y-81.05
X128.8Y-126.05
X128.9Y-105.55
X128.95Y-95.2
X128.95Y-98.1
X129.0Y-94.3
X129.0Y-99.0
X129.2Y-87.25
X129.45Y-109.0
X129.7Y-92.75
X129.85Y-117.1
X130.25Y-94.25
X130.25Y-100.0
X130.35Y-72.85
X130.5Y-98.6
X130.55Y-97.3
X130.8Y-110.7
X130.85Y-112.05
X130.9Y-113.8
X131.05Y-93.05
X131.1Y-117.4
X131.45Y-100.0
X132.5Y-91.875
X132.5Y-97.2
X132.5Y-107.4
X132.55Y-96.2
X132.7Y-95.1
X133.7Y-88.5
X133.875Y-116.334
X134.35Y-107.35
X134.67Y-116.425
X135.15Y-73.9
X135.45Y-86.4
X135.5Y-82.55
X135.95Y-107.1
X136.1Y-76.25
X136.2Y-111.1
X136.25Y-93.75
X136.3Y-97.25
X136.345Y-98.079
X136.35Y-82.15
X136.4Y-117.25
X136.55Y-115.35
X138.25Y-94.45
X138.95Y-119.8
X139.4Y-93.85
X139.7Y-69.95
X139.85Y-71.95
X140.4Y-92.65
X140.45Y-107.2
X141.55Y-77.7
X141.8Y-121.35
X142.1Y-89.4
X142.1Y-99.05
X142.25Y-104.85
X142.425Y-113.3
X142.549Y-75.9
X142.6Y-106.35
X142.9Y-117.6
X143.05Y-115.0
X143.5Y-119.35
X143.8Y-73.75
X144.5Y-99.25
X145.0Y-95.1
X145.305Y-76.875
X145.305Y-81.955
X145.305Y-84.495
X146.2Y-116.1
X146.45Y-71.85
X146.65Y-78.7
X146.7Y-121.1
X146.85Y-75.7
X146.9Y-99.05
X147.0Y-104.95
X147.05Y-95.05
X147.1Y-74.35
X147.25Y-67.2
X147.25Y-69.25
X147.3Y-68.45
X148.8Y-92.05
X149.3Y-71.2
X149.4Y-122.91
X149.45Y-110.612
X149.7Y-118.85
X149.85Y-77.3
X149.9Y-121.5
X150.0Y-74.85
X150.0Y-76.25
X150.05Y-73.45
X150.05Y-124.15
X150.15Y-67.45
X150.2Y-99.15
X150.85Y-72.5
X150.891Y-124.209
X151.0Y-78.3
X151.0Y-83.05
X151.457Y-91.793
X151.55Y-80.85
X151.7Y-106.0
X151.75Y-67.5
X151.9Y-70.2
X152.078Y-94.6
X152.2Y-72.25
X152.25Y-78.45
X152.25Y-101.05
X152.299Y-91.751
X152.459Y-121.54
X153.15Y-67.5
X153.2Y-118.7
X153.4Y-121.45
X153.5Y-78.35
X153.643Y-92.211
X153.75Y-72.1
X154.2Y-122.91
X154.35Y-120.0
X154.458Y-92.142
X154.65Y-70.35
X154.85Y-78.3
X154.885Y-95.275
X155.05Y-107.75
X155.15Y-72.15
X155.15Y-102.15
X155.25Y-101.0
X155.25Y-104.35
X155.3Y-92.1
X155.45Y-67.25
X155.75Y-88.6
X156.0Y-78.15
X156.25Y-73.05
X156.4Y-74.45
X156.4Y-76.65
X156.45Y-75.6
X156.65Y-105.9
X156.9Y-87.85
X157.3Y-71.3
X157.65Y-67.35
X157.8Y-91.55
X157.85Y-89.9
X158.35Y-107.2
X158.55Y-87.65
X158.75Y-99.25
X159.0Y-120.0
X159.15Y-111.85
X159.457Y-95.907
X159.6Y-94.65
X159.65Y-87.65
X160.05Y-121.35
X160.15Y-67.35
X160.45Y-123.6
X160.65Y-79.35
X160.85Y-74.3
X161.05Y-71.15
X161.05Y-72.0
X161.2Y-101.65
X161.7Y-89.9
X162.15Y-112.2
X162.15Y-116.4
X162.55Y-100.3
X162.805Y-79.415
X162.95Y-103.35
X163.0Y-123.938
X164.0Y-120.95
X164.625Y-74.4
X164.65Y-68.35
X164.7Y-101.3
X164.8Y-84.25
X165.1Y-87.05
X165.2Y-115.05
X165.35Y-120.85
X165.45Y-109.95
X166.05Y-70.35
X166.8Y-81.1
X166.8Y-91.7
X167.45Y-71.2
X167.75Y-85.65
X167.95Y-83.05
X168.05Y-81.0
X168.225Y-101.1
X168.25Y-78.25
X168.75Y-69.25
X168.8Y-76.1
X169.05Y-67.9
X169.5Y-88.65
X169.9Y-109.55
X170.0Y-97.05
X170.9Y-122.95
X171.55Y-120.75
X172.05Y-121.7
X172.3Y-82.35
X172.3Y-83.75
X172.35Y-81.6
X172.45Y-85.3
X173.0Y-112.0
X173.05Y-104.2
X174.0Y-120.0
X174.0Y-121.0
X174.2Y-104.85
X174.8Y-101.0
X175.0Y-120.0
X175.0Y-121.0
X175.5Y-102.75
X176.0Y-108.0
X176.0Y-109.0
X176.0Y-113.0
X176.0Y-120.0
X176.0Y-121.0
X176.15Y-80.3
X176.15Y-84.35
X176.2Y-81.05
X176.2Y-85.0
X177.45Y-100.55
X177.6Y-79.4
X177.6Y-82.1
X179.45Y-84.9
X179.75Y-119.15
X180.3Y-76.05
X180.8Y-126.4
X180.9Y-74.0
X180.95Y-91.1
X182.35Y-97.45
X183.25Y-119.1
X185.1Y-126.7
X185.6Y-79.35
X185.85Y-75.65
X186.2Y-96.3
X186.75Y-123.45
X187.05Y-66.3
X187.4Y-103.95
X188.8Y-72.45
X189.9Y-100.0
X190.3Y-83.4
X190.3Y-95.05
X191.2Y-100.0
X191.65Y-74.1
X191.8Y-95.05
X192.638Y-100.061
X193.3Y-95.0
X193.638Y-101.061
X194.0Y-72.5
X194.8Y-95.9
X194.8Y-99.4
X194.95Y-97.55
X195.4Y-100.45
T3
X125.0Y-98.25
X127.1Y-101.95
X134.95Y-121.15
X137.85Y-99.8
X175.701Y-87.699
X188.3Y-95.55
T5
X112.0Y-76.5
X112.0Y-79.0
X112.0Y-81.5
X112.0Y-91.5
X112.0Y-94.0
X112.0Y-96.5
X112.0Y-99.0
X112.0Y-108.5
X112.0Y-111.0
X112.0Y-113.5
X119.75Y-76.45
X119.75Y-78.95
X119.75Y-81.45
X120.0Y-108.55
X120.0Y-111.05
X120.0Y-113.55
X164.4Y-127.5
X166.9Y-127.5
X169.4Y-127.5
X171.9Y-127.5
X174.4Y-127.5
X194.7Y-77.1
X194.7Y-79.6
X194.7Y-82.1
X194.7Y-84.6
X194.7Y-87.1
X194.7Y-89.6
X194.7Y-92.1
T6
X122.5Y-126.0
X122.8Y-63.95
X125.0Y-126.0
X125.3Y-63.95
X133.8Y-68.65
X136.3Y-68.65
X161.25Y-106.85
X171.65Y-69.15
X171.825Y-90.5
X174.15Y-69.15
X174.4Y-90.4
T4
G00X147.48Y-122.935
M15
G01X147.48Y-124.035
M16
G05
G00X147.48Y-127.265
M15
G01X147.48Y-128.065
M16
G05
G00X156.12Y-122.935
M15
G01X156.12Y-124.035
M16
G05
G00X156.12Y-127.265
M15
G01X156.12Y-128.065
M16
G05
T6
G00X181.45Y-116.35
M15
G01X184.05Y-116.35
M16
G05
G00X181.65Y-122.65
M15
G01X183.85Y-122.65
M16
G05
G00X187.55Y-118.15
M15
G01X187.55Y-120.35
M16
G05
M30
