G04 #@! TF.GenerationSoftware,KiCad,Pcbnew,9.0.2*
G04 #@! TF.CreationDate,2025-09-10T14:09:23+05:30*
G04 #@! TF.ProjectId,V2DesignESP32PCB,56324465-7369-4676-9e45-535033325043,rev?*
G04 #@! TF.SameCoordinates,Original*
G04 #@! TF.FileFunction,Soldermask,Bot*
G04 #@! TF.FilePolarity,Negative*
%FSLAX46Y46*%
G04 Gerber Fmt 4.6, Leading zero omitted, Abs format (unit mm)*
G04 Created by KiCad (PCBNEW 9.0.2) date 2025-09-10 14:09:23*
%MOMM*%
%LPD*%
G01*
G04 APERTURE LIST*
G04 Aperture macros list*
%AMRoundRect*
0 Rectangle with rounded corners*
0 $1 Rounding radius*
0 $2 $3 $4 $5 $6 $7 $8 $9 X,Y pos of 4 corners*
0 Add a 4 corners polygon primitive as box body*
4,1,4,$2,$3,$4,$5,$6,$7,$8,$9,$2,$3,0*
0 Add four circle primitives for the rounded corners*
1,1,$1+$1,$2,$3*
1,1,$1+$1,$4,$5*
1,1,$1+$1,$6,$7*
1,1,$1+$1,$8,$9*
0 Add four rect primitives between the rounded corners*
20,1,$1+$1,$2,$3,$4,$5,0*
20,1,$1+$1,$4,$5,$6,$7,0*
20,1,$1+$1,$6,$7,$8,$9,0*
20,1,$1+$1,$8,$9,$2,$3,0*%
G04 Aperture macros list end*
%ADD10C,4.000000*%
%ADD11RoundRect,0.250000X0.600000X0.750000X-0.600000X0.750000X-0.600000X-0.750000X0.600000X-0.750000X0*%
%ADD12O,1.700000X2.000000*%
%ADD13C,1.700000*%
%ADD14RoundRect,0.250000X-0.600000X-0.725000X0.600000X-0.725000X0.600000X0.725000X-0.600000X0.725000X0*%
%ADD15O,1.700000X1.950000*%
%ADD16RoundRect,0.250000X-0.725000X0.600000X-0.725000X-0.600000X0.725000X-0.600000X0.725000X0.600000X0*%
%ADD17O,1.950000X1.700000*%
%ADD18R,4.600000X2.000000*%
%ADD19O,4.200000X2.000000*%
%ADD20O,2.000000X4.200000*%
%ADD21RoundRect,0.250000X-0.600000X-0.750000X0.600000X-0.750000X0.600000X0.750000X-0.600000X0.750000X0*%
%ADD22R,1.700000X1.700000*%
%ADD23C,0.650000*%
%ADD24O,1.000000X2.100000*%
%ADD25O,1.000000X1.800000*%
%ADD26RoundRect,0.250000X0.725000X-0.600000X0.725000X0.600000X-0.725000X0.600000X-0.725000X-0.600000X0*%
G04 APERTURE END LIST*
D10*
G04 #@! TO.C,H4*
X192700000Y-66000000D03*
G04 #@! TD*
G04 #@! TO.C,H1*
X114000000Y-124900000D03*
G04 #@! TD*
D11*
G04 #@! TO.C,J21*
X125300000Y-63950000D03*
D12*
X122800000Y-63950000D03*
G04 #@! TD*
D13*
G04 #@! TO.C,*
X174400000Y-90400000D03*
G04 #@! TD*
D14*
G04 #@! TO.C,J17*
X164400000Y-127500000D03*
D15*
X166900000Y-127500000D03*
X169400000Y-127500000D03*
X171900000Y-127500000D03*
X174400000Y-127500000D03*
G04 #@! TD*
D10*
G04 #@! TO.C,H3*
X114200000Y-66200000D03*
G04 #@! TD*
D16*
G04 #@! TO.C,J28*
X120000000Y-108550000D03*
D17*
X120000000Y-111050000D03*
X120000000Y-113550000D03*
G04 #@! TD*
D10*
G04 #@! TO.C,H2*
X192900000Y-124700000D03*
G04 #@! TD*
D16*
G04 #@! TO.C,J25*
X112000000Y-108500000D03*
D17*
X112000000Y-111000000D03*
X112000000Y-113500000D03*
G04 #@! TD*
D18*
G04 #@! TO.C,J20*
X182750000Y-116350000D03*
D19*
X182750000Y-122650000D03*
D20*
X187550000Y-119250000D03*
G04 #@! TD*
D21*
G04 #@! TO.C,J23*
X171650000Y-69150000D03*
D12*
X174150000Y-69150000D03*
G04 #@! TD*
D16*
G04 #@! TO.C,J18*
X112000000Y-76500000D03*
D17*
X112000000Y-79000000D03*
X112000000Y-81500000D03*
G04 #@! TD*
D22*
G04 #@! TO.C,*
X171825000Y-90500000D03*
G04 #@! TD*
D16*
G04 #@! TO.C,J27*
X119750000Y-76450000D03*
D17*
X119750000Y-78950000D03*
X119750000Y-81450000D03*
G04 #@! TD*
D23*
G04 #@! TO.C,JUSB1*
X148910000Y-123985000D03*
X154690000Y-123985000D03*
D24*
X147480000Y-123485000D03*
D25*
X147480000Y-127665000D03*
D24*
X156120000Y-123485000D03*
D25*
X156120000Y-127665000D03*
G04 #@! TD*
D26*
G04 #@! TO.C,J26*
X194700000Y-92100000D03*
D17*
X194700000Y-89600000D03*
X194700000Y-87100000D03*
X194700000Y-84600000D03*
X194700000Y-82100000D03*
X194700000Y-79600000D03*
X194700000Y-77100000D03*
G04 #@! TD*
D21*
G04 #@! TO.C,J22*
X122500000Y-126000000D03*
D12*
X125000000Y-126000000D03*
G04 #@! TD*
D16*
G04 #@! TO.C,J10*
X112000000Y-91500000D03*
D17*
X112000000Y-94000000D03*
X112000000Y-96500000D03*
X112000000Y-99000000D03*
G04 #@! TD*
D21*
G04 #@! TO.C,*
X161250000Y-106850000D03*
G04 #@! TD*
G04 #@! TO.C,J29*
X133800000Y-68650000D03*
D12*
X136300000Y-68650000D03*
G04 #@! TD*
M02*
