%TF.GenerationSoftware,KiCad,Pcbnew,9.0.2*%
%TF.CreationDate,2025-09-10T14:09:24+05:30*%
%TF.ProjectId,V2DesignESP32PCB,56324465-7369-4676-9e45-535033325043,rev?*%
%TF.SameCoordinates,Original*%
%TF.FileFunction,Drillmap*%
%TF.FilePolarity,Positive*%
%FSLAX45Y45*%
G04 Gerber Fmt 4.5, Leading zero omitted, Abs format (unit mm)*
G04 Created by KiCad (PCBNEW 9.0.2) date 2025-09-10 14:09:24*
%MOMM*%
%LPD*%
G01*
G04 APERTURE LIST*
%ADD10C,0.100000*%
%ADD11C,0.200000*%
%ADD12C,0.400000*%
G04 APERTURE END LIST*
D10*
X11250000Y-6028500D02*
X19450000Y-6028500D01*
X19450000Y-13028500D02*
X11250000Y-13028500D01*
X11250000Y-13028500D02*
G75*
G02*
X10850000Y-12628500I0J400000D01*
G01*
X19450000Y-6028500D02*
G75*
G02*
X19850000Y-6428500I0J-400000D01*
G01*
X19850000Y-6428500D02*
X19850000Y-12628500D01*
X10850000Y-6428500D02*
G75*
G02*
X11250000Y-6028500I400000J0D01*
G01*
X19850000Y-12628500D02*
G75*
G02*
X19450000Y-13028500I-400000J0D01*
G01*
X10850000Y-12628500D02*
X10850000Y-6428500D01*
D11*
D10*
X14858500Y-12366000D02*
X14923500Y-12431000D01*
X14923500Y-12366000D02*
X14858500Y-12431000D01*
X15436500Y-12366000D02*
X15501500Y-12431000D01*
X15501500Y-12366000D02*
X15436500Y-12431000D01*
D12*
X11600000Y-12490000D02*
G75*
G02*
X11200000Y-12490000I-200000J0D01*
G01*
X11200000Y-12490000D02*
G75*
G02*
X11600000Y-12490000I200000J0D01*
G01*
X11620000Y-6620000D02*
G75*
G02*
X11220000Y-6620000I-200000J0D01*
G01*
X11220000Y-6620000D02*
G75*
G02*
X11620000Y-6620000I200000J0D01*
G01*
X19470000Y-6600000D02*
G75*
G02*
X19070000Y-6600000I-200000J0D01*
G01*
X19070000Y-6600000D02*
G75*
G02*
X19470000Y-6600000I200000J0D01*
G01*
X19490000Y-12470000D02*
G75*
G02*
X19090000Y-12470000I-200000J0D01*
G01*
X19090000Y-12470000D02*
G75*
G02*
X19490000Y-12470000I200000J0D01*
G01*
D11*
X11105777Y-13344984D02*
X11105777Y-13144984D01*
X11105777Y-13144984D02*
X11153396Y-13144984D01*
X11153396Y-13144984D02*
X11181967Y-13154508D01*
X11181967Y-13154508D02*
X11201015Y-13173555D01*
X11201015Y-13173555D02*
X11210539Y-13192603D01*
X11210539Y-13192603D02*
X11220062Y-13230698D01*
X11220062Y-13230698D02*
X11220062Y-13259269D01*
X11220062Y-13259269D02*
X11210539Y-13297365D01*
X11210539Y-13297365D02*
X11201015Y-13316412D01*
X11201015Y-13316412D02*
X11181967Y-13335460D01*
X11181967Y-13335460D02*
X11153396Y-13344984D01*
X11153396Y-13344984D02*
X11105777Y-13344984D01*
X11305777Y-13344984D02*
X11305777Y-13211650D01*
X11305777Y-13249746D02*
X11315301Y-13230698D01*
X11315301Y-13230698D02*
X11324824Y-13221174D01*
X11324824Y-13221174D02*
X11343872Y-13211650D01*
X11343872Y-13211650D02*
X11362920Y-13211650D01*
X11429586Y-13344984D02*
X11429586Y-13211650D01*
X11429586Y-13144984D02*
X11420062Y-13154508D01*
X11420062Y-13154508D02*
X11429586Y-13164031D01*
X11429586Y-13164031D02*
X11439110Y-13154508D01*
X11439110Y-13154508D02*
X11429586Y-13144984D01*
X11429586Y-13144984D02*
X11429586Y-13164031D01*
X11553396Y-13344984D02*
X11534348Y-13335460D01*
X11534348Y-13335460D02*
X11524824Y-13316412D01*
X11524824Y-13316412D02*
X11524824Y-13144984D01*
X11658158Y-13344984D02*
X11639110Y-13335460D01*
X11639110Y-13335460D02*
X11629586Y-13316412D01*
X11629586Y-13316412D02*
X11629586Y-13144984D01*
X11886729Y-13344984D02*
X11886729Y-13144984D01*
X11886729Y-13144984D02*
X11953396Y-13287841D01*
X11953396Y-13287841D02*
X12020062Y-13144984D01*
X12020062Y-13144984D02*
X12020062Y-13344984D01*
X12201015Y-13344984D02*
X12201015Y-13240222D01*
X12201015Y-13240222D02*
X12191491Y-13221174D01*
X12191491Y-13221174D02*
X12172443Y-13211650D01*
X12172443Y-13211650D02*
X12134348Y-13211650D01*
X12134348Y-13211650D02*
X12115301Y-13221174D01*
X12201015Y-13335460D02*
X12181967Y-13344984D01*
X12181967Y-13344984D02*
X12134348Y-13344984D01*
X12134348Y-13344984D02*
X12115301Y-13335460D01*
X12115301Y-13335460D02*
X12105777Y-13316412D01*
X12105777Y-13316412D02*
X12105777Y-13297365D01*
X12105777Y-13297365D02*
X12115301Y-13278317D01*
X12115301Y-13278317D02*
X12134348Y-13268793D01*
X12134348Y-13268793D02*
X12181967Y-13268793D01*
X12181967Y-13268793D02*
X12201015Y-13259269D01*
X12296253Y-13211650D02*
X12296253Y-13411650D01*
X12296253Y-13221174D02*
X12315301Y-13211650D01*
X12315301Y-13211650D02*
X12353396Y-13211650D01*
X12353396Y-13211650D02*
X12372443Y-13221174D01*
X12372443Y-13221174D02*
X12381967Y-13230698D01*
X12381967Y-13230698D02*
X12391491Y-13249746D01*
X12391491Y-13249746D02*
X12391491Y-13306888D01*
X12391491Y-13306888D02*
X12381967Y-13325936D01*
X12381967Y-13325936D02*
X12372443Y-13335460D01*
X12372443Y-13335460D02*
X12353396Y-13344984D01*
X12353396Y-13344984D02*
X12315301Y-13344984D01*
X12315301Y-13344984D02*
X12296253Y-13335460D01*
X12477205Y-13325936D02*
X12486729Y-13335460D01*
X12486729Y-13335460D02*
X12477205Y-13344984D01*
X12477205Y-13344984D02*
X12467682Y-13335460D01*
X12467682Y-13335460D02*
X12477205Y-13325936D01*
X12477205Y-13325936D02*
X12477205Y-13344984D01*
X12477205Y-13221174D02*
X12486729Y-13230698D01*
X12486729Y-13230698D02*
X12477205Y-13240222D01*
X12477205Y-13240222D02*
X12467682Y-13230698D01*
X12467682Y-13230698D02*
X12477205Y-13221174D01*
X12477205Y-13221174D02*
X12477205Y-13240222D01*
D10*
X10780000Y-13641000D02*
X10845000Y-13706000D01*
X10845000Y-13641000D02*
X10780000Y-13706000D01*
D11*
X11143872Y-13564984D02*
X11162920Y-13564984D01*
X11162920Y-13564984D02*
X11181967Y-13574508D01*
X11181967Y-13574508D02*
X11191491Y-13584031D01*
X11191491Y-13584031D02*
X11201015Y-13603079D01*
X11201015Y-13603079D02*
X11210539Y-13641174D01*
X11210539Y-13641174D02*
X11210539Y-13688793D01*
X11210539Y-13688793D02*
X11201015Y-13726888D01*
X11201015Y-13726888D02*
X11191491Y-13745936D01*
X11191491Y-13745936D02*
X11181967Y-13755460D01*
X11181967Y-13755460D02*
X11162920Y-13764984D01*
X11162920Y-13764984D02*
X11143872Y-13764984D01*
X11143872Y-13764984D02*
X11124824Y-13755460D01*
X11124824Y-13755460D02*
X11115301Y-13745936D01*
X11115301Y-13745936D02*
X11105777Y-13726888D01*
X11105777Y-13726888D02*
X11096253Y-13688793D01*
X11096253Y-13688793D02*
X11096253Y-13641174D01*
X11096253Y-13641174D02*
X11105777Y-13603079D01*
X11105777Y-13603079D02*
X11115301Y-13584031D01*
X11115301Y-13584031D02*
X11124824Y-13574508D01*
X11124824Y-13574508D02*
X11143872Y-13564984D01*
X11296253Y-13745936D02*
X11305777Y-13755460D01*
X11305777Y-13755460D02*
X11296253Y-13764984D01*
X11296253Y-13764984D02*
X11286729Y-13755460D01*
X11286729Y-13755460D02*
X11296253Y-13745936D01*
X11296253Y-13745936D02*
X11296253Y-13764984D01*
X11477205Y-13564984D02*
X11439110Y-13564984D01*
X11439110Y-13564984D02*
X11420062Y-13574508D01*
X11420062Y-13574508D02*
X11410539Y-13584031D01*
X11410539Y-13584031D02*
X11391491Y-13612603D01*
X11391491Y-13612603D02*
X11381967Y-13650698D01*
X11381967Y-13650698D02*
X11381967Y-13726888D01*
X11381967Y-13726888D02*
X11391491Y-13745936D01*
X11391491Y-13745936D02*
X11401015Y-13755460D01*
X11401015Y-13755460D02*
X11420062Y-13764984D01*
X11420062Y-13764984D02*
X11458158Y-13764984D01*
X11458158Y-13764984D02*
X11477205Y-13755460D01*
X11477205Y-13755460D02*
X11486729Y-13745936D01*
X11486729Y-13745936D02*
X11496253Y-13726888D01*
X11496253Y-13726888D02*
X11496253Y-13679269D01*
X11496253Y-13679269D02*
X11486729Y-13660222D01*
X11486729Y-13660222D02*
X11477205Y-13650698D01*
X11477205Y-13650698D02*
X11458158Y-13641174D01*
X11458158Y-13641174D02*
X11420062Y-13641174D01*
X11420062Y-13641174D02*
X11401015Y-13650698D01*
X11401015Y-13650698D02*
X11391491Y-13660222D01*
X11391491Y-13660222D02*
X11381967Y-13679269D01*
X11677205Y-13564984D02*
X11581967Y-13564984D01*
X11581967Y-13564984D02*
X11572443Y-13660222D01*
X11572443Y-13660222D02*
X11581967Y-13650698D01*
X11581967Y-13650698D02*
X11601015Y-13641174D01*
X11601015Y-13641174D02*
X11648634Y-13641174D01*
X11648634Y-13641174D02*
X11667682Y-13650698D01*
X11667682Y-13650698D02*
X11677205Y-13660222D01*
X11677205Y-13660222D02*
X11686729Y-13679269D01*
X11686729Y-13679269D02*
X11686729Y-13726888D01*
X11686729Y-13726888D02*
X11677205Y-13745936D01*
X11677205Y-13745936D02*
X11667682Y-13755460D01*
X11667682Y-13755460D02*
X11648634Y-13764984D01*
X11648634Y-13764984D02*
X11601015Y-13764984D01*
X11601015Y-13764984D02*
X11581967Y-13755460D01*
X11581967Y-13755460D02*
X11572443Y-13745936D01*
X11810539Y-13564984D02*
X11829586Y-13564984D01*
X11829586Y-13564984D02*
X11848634Y-13574508D01*
X11848634Y-13574508D02*
X11858158Y-13584031D01*
X11858158Y-13584031D02*
X11867682Y-13603079D01*
X11867682Y-13603079D02*
X11877205Y-13641174D01*
X11877205Y-13641174D02*
X11877205Y-13688793D01*
X11877205Y-13688793D02*
X11867682Y-13726888D01*
X11867682Y-13726888D02*
X11858158Y-13745936D01*
X11858158Y-13745936D02*
X11848634Y-13755460D01*
X11848634Y-13755460D02*
X11829586Y-13764984D01*
X11829586Y-13764984D02*
X11810539Y-13764984D01*
X11810539Y-13764984D02*
X11791491Y-13755460D01*
X11791491Y-13755460D02*
X11781967Y-13745936D01*
X11781967Y-13745936D02*
X11772443Y-13726888D01*
X11772443Y-13726888D02*
X11762920Y-13688793D01*
X11762920Y-13688793D02*
X11762920Y-13641174D01*
X11762920Y-13641174D02*
X11772443Y-13603079D01*
X11772443Y-13603079D02*
X11781967Y-13584031D01*
X11781967Y-13584031D02*
X11791491Y-13574508D01*
X11791491Y-13574508D02*
X11810539Y-13564984D01*
X11962920Y-13764984D02*
X11962920Y-13631650D01*
X11962920Y-13650698D02*
X11972443Y-13641174D01*
X11972443Y-13641174D02*
X11991491Y-13631650D01*
X11991491Y-13631650D02*
X12020063Y-13631650D01*
X12020063Y-13631650D02*
X12039110Y-13641174D01*
X12039110Y-13641174D02*
X12048634Y-13660222D01*
X12048634Y-13660222D02*
X12048634Y-13764984D01*
X12048634Y-13660222D02*
X12058158Y-13641174D01*
X12058158Y-13641174D02*
X12077205Y-13631650D01*
X12077205Y-13631650D02*
X12105777Y-13631650D01*
X12105777Y-13631650D02*
X12124824Y-13641174D01*
X12124824Y-13641174D02*
X12134348Y-13660222D01*
X12134348Y-13660222D02*
X12134348Y-13764984D01*
X12229586Y-13764984D02*
X12229586Y-13631650D01*
X12229586Y-13650698D02*
X12239110Y-13641174D01*
X12239110Y-13641174D02*
X12258158Y-13631650D01*
X12258158Y-13631650D02*
X12286729Y-13631650D01*
X12286729Y-13631650D02*
X12305777Y-13641174D01*
X12305777Y-13641174D02*
X12315301Y-13660222D01*
X12315301Y-13660222D02*
X12315301Y-13764984D01*
X12315301Y-13660222D02*
X12324824Y-13641174D01*
X12324824Y-13641174D02*
X12343872Y-13631650D01*
X12343872Y-13631650D02*
X12372443Y-13631650D01*
X12372443Y-13631650D02*
X12391491Y-13641174D01*
X12391491Y-13641174D02*
X12401015Y-13660222D01*
X12401015Y-13660222D02*
X12401015Y-13764984D01*
X12791491Y-13555460D02*
X12620063Y-13812603D01*
X13048634Y-13564984D02*
X13067682Y-13564984D01*
X13067682Y-13564984D02*
X13086729Y-13574508D01*
X13086729Y-13574508D02*
X13096253Y-13584031D01*
X13096253Y-13584031D02*
X13105777Y-13603079D01*
X13105777Y-13603079D02*
X13115301Y-13641174D01*
X13115301Y-13641174D02*
X13115301Y-13688793D01*
X13115301Y-13688793D02*
X13105777Y-13726888D01*
X13105777Y-13726888D02*
X13096253Y-13745936D01*
X13096253Y-13745936D02*
X13086729Y-13755460D01*
X13086729Y-13755460D02*
X13067682Y-13764984D01*
X13067682Y-13764984D02*
X13048634Y-13764984D01*
X13048634Y-13764984D02*
X13029586Y-13755460D01*
X13029586Y-13755460D02*
X13020063Y-13745936D01*
X13020063Y-13745936D02*
X13010539Y-13726888D01*
X13010539Y-13726888D02*
X13001015Y-13688793D01*
X13001015Y-13688793D02*
X13001015Y-13641174D01*
X13001015Y-13641174D02*
X13010539Y-13603079D01*
X13010539Y-13603079D02*
X13020063Y-13584031D01*
X13020063Y-13584031D02*
X13029586Y-13574508D01*
X13029586Y-13574508D02*
X13048634Y-13564984D01*
X13201015Y-13745936D02*
X13210539Y-13755460D01*
X13210539Y-13755460D02*
X13201015Y-13764984D01*
X13201015Y-13764984D02*
X13191491Y-13755460D01*
X13191491Y-13755460D02*
X13201015Y-13745936D01*
X13201015Y-13745936D02*
X13201015Y-13764984D01*
X13334348Y-13564984D02*
X13353396Y-13564984D01*
X13353396Y-13564984D02*
X13372444Y-13574508D01*
X13372444Y-13574508D02*
X13381967Y-13584031D01*
X13381967Y-13584031D02*
X13391491Y-13603079D01*
X13391491Y-13603079D02*
X13401015Y-13641174D01*
X13401015Y-13641174D02*
X13401015Y-13688793D01*
X13401015Y-13688793D02*
X13391491Y-13726888D01*
X13391491Y-13726888D02*
X13381967Y-13745936D01*
X13381967Y-13745936D02*
X13372444Y-13755460D01*
X13372444Y-13755460D02*
X13353396Y-13764984D01*
X13353396Y-13764984D02*
X13334348Y-13764984D01*
X13334348Y-13764984D02*
X13315301Y-13755460D01*
X13315301Y-13755460D02*
X13305777Y-13745936D01*
X13305777Y-13745936D02*
X13296253Y-13726888D01*
X13296253Y-13726888D02*
X13286729Y-13688793D01*
X13286729Y-13688793D02*
X13286729Y-13641174D01*
X13286729Y-13641174D02*
X13296253Y-13603079D01*
X13296253Y-13603079D02*
X13305777Y-13584031D01*
X13305777Y-13584031D02*
X13315301Y-13574508D01*
X13315301Y-13574508D02*
X13334348Y-13564984D01*
X13477206Y-13584031D02*
X13486729Y-13574508D01*
X13486729Y-13574508D02*
X13505777Y-13564984D01*
X13505777Y-13564984D02*
X13553396Y-13564984D01*
X13553396Y-13564984D02*
X13572444Y-13574508D01*
X13572444Y-13574508D02*
X13581967Y-13584031D01*
X13581967Y-13584031D02*
X13591491Y-13603079D01*
X13591491Y-13603079D02*
X13591491Y-13622127D01*
X13591491Y-13622127D02*
X13581967Y-13650698D01*
X13581967Y-13650698D02*
X13467682Y-13764984D01*
X13467682Y-13764984D02*
X13591491Y-13764984D01*
X13772444Y-13564984D02*
X13677206Y-13564984D01*
X13677206Y-13564984D02*
X13667682Y-13660222D01*
X13667682Y-13660222D02*
X13677206Y-13650698D01*
X13677206Y-13650698D02*
X13696253Y-13641174D01*
X13696253Y-13641174D02*
X13743872Y-13641174D01*
X13743872Y-13641174D02*
X13762920Y-13650698D01*
X13762920Y-13650698D02*
X13772444Y-13660222D01*
X13772444Y-13660222D02*
X13781967Y-13679269D01*
X13781967Y-13679269D02*
X13781967Y-13726888D01*
X13781967Y-13726888D02*
X13772444Y-13745936D01*
X13772444Y-13745936D02*
X13762920Y-13755460D01*
X13762920Y-13755460D02*
X13743872Y-13764984D01*
X13743872Y-13764984D02*
X13696253Y-13764984D01*
X13696253Y-13764984D02*
X13677206Y-13755460D01*
X13677206Y-13755460D02*
X13667682Y-13745936D01*
X13953396Y-13564984D02*
X13915301Y-13564984D01*
X13915301Y-13564984D02*
X13896253Y-13574508D01*
X13896253Y-13574508D02*
X13886729Y-13584031D01*
X13886729Y-13584031D02*
X13867682Y-13612603D01*
X13867682Y-13612603D02*
X13858158Y-13650698D01*
X13858158Y-13650698D02*
X13858158Y-13726888D01*
X13858158Y-13726888D02*
X13867682Y-13745936D01*
X13867682Y-13745936D02*
X13877206Y-13755460D01*
X13877206Y-13755460D02*
X13896253Y-13764984D01*
X13896253Y-13764984D02*
X13934348Y-13764984D01*
X13934348Y-13764984D02*
X13953396Y-13755460D01*
X13953396Y-13755460D02*
X13962920Y-13745936D01*
X13962920Y-13745936D02*
X13972444Y-13726888D01*
X13972444Y-13726888D02*
X13972444Y-13679269D01*
X13972444Y-13679269D02*
X13962920Y-13660222D01*
X13962920Y-13660222D02*
X13953396Y-13650698D01*
X13953396Y-13650698D02*
X13934348Y-13641174D01*
X13934348Y-13641174D02*
X13896253Y-13641174D01*
X13896253Y-13641174D02*
X13877206Y-13650698D01*
X13877206Y-13650698D02*
X13867682Y-13660222D01*
X13867682Y-13660222D02*
X13858158Y-13679269D01*
X14048634Y-13564984D02*
X14048634Y-13603079D01*
X14124825Y-13564984D02*
X14124825Y-13603079D01*
X14420063Y-13841174D02*
X14410539Y-13831650D01*
X14410539Y-13831650D02*
X14391491Y-13803079D01*
X14391491Y-13803079D02*
X14381968Y-13784031D01*
X14381968Y-13784031D02*
X14372444Y-13755460D01*
X14372444Y-13755460D02*
X14362920Y-13707841D01*
X14362920Y-13707841D02*
X14362920Y-13669746D01*
X14362920Y-13669746D02*
X14372444Y-13622127D01*
X14372444Y-13622127D02*
X14381968Y-13593555D01*
X14381968Y-13593555D02*
X14391491Y-13574508D01*
X14391491Y-13574508D02*
X14410539Y-13545936D01*
X14410539Y-13545936D02*
X14420063Y-13536412D01*
X14486729Y-13584031D02*
X14496253Y-13574508D01*
X14496253Y-13574508D02*
X14515301Y-13564984D01*
X14515301Y-13564984D02*
X14562920Y-13564984D01*
X14562920Y-13564984D02*
X14581968Y-13574508D01*
X14581968Y-13574508D02*
X14591491Y-13584031D01*
X14591491Y-13584031D02*
X14601015Y-13603079D01*
X14601015Y-13603079D02*
X14601015Y-13622127D01*
X14601015Y-13622127D02*
X14591491Y-13650698D01*
X14591491Y-13650698D02*
X14477206Y-13764984D01*
X14477206Y-13764984D02*
X14601015Y-13764984D01*
X14839110Y-13764984D02*
X14839110Y-13564984D01*
X14924825Y-13764984D02*
X14924825Y-13660222D01*
X14924825Y-13660222D02*
X14915301Y-13641174D01*
X14915301Y-13641174D02*
X14896253Y-13631650D01*
X14896253Y-13631650D02*
X14867682Y-13631650D01*
X14867682Y-13631650D02*
X14848634Y-13641174D01*
X14848634Y-13641174D02*
X14839110Y-13650698D01*
X15048634Y-13764984D02*
X15029587Y-13755460D01*
X15029587Y-13755460D02*
X15020063Y-13745936D01*
X15020063Y-13745936D02*
X15010539Y-13726888D01*
X15010539Y-13726888D02*
X15010539Y-13669746D01*
X15010539Y-13669746D02*
X15020063Y-13650698D01*
X15020063Y-13650698D02*
X15029587Y-13641174D01*
X15029587Y-13641174D02*
X15048634Y-13631650D01*
X15048634Y-13631650D02*
X15077206Y-13631650D01*
X15077206Y-13631650D02*
X15096253Y-13641174D01*
X15096253Y-13641174D02*
X15105777Y-13650698D01*
X15105777Y-13650698D02*
X15115301Y-13669746D01*
X15115301Y-13669746D02*
X15115301Y-13726888D01*
X15115301Y-13726888D02*
X15105777Y-13745936D01*
X15105777Y-13745936D02*
X15096253Y-13755460D01*
X15096253Y-13755460D02*
X15077206Y-13764984D01*
X15077206Y-13764984D02*
X15048634Y-13764984D01*
X15229587Y-13764984D02*
X15210539Y-13755460D01*
X15210539Y-13755460D02*
X15201015Y-13736412D01*
X15201015Y-13736412D02*
X15201015Y-13564984D01*
X15381968Y-13755460D02*
X15362920Y-13764984D01*
X15362920Y-13764984D02*
X15324825Y-13764984D01*
X15324825Y-13764984D02*
X15305777Y-13755460D01*
X15305777Y-13755460D02*
X15296253Y-13736412D01*
X15296253Y-13736412D02*
X15296253Y-13660222D01*
X15296253Y-13660222D02*
X15305777Y-13641174D01*
X15305777Y-13641174D02*
X15324825Y-13631650D01*
X15324825Y-13631650D02*
X15362920Y-13631650D01*
X15362920Y-13631650D02*
X15381968Y-13641174D01*
X15381968Y-13641174D02*
X15391491Y-13660222D01*
X15391491Y-13660222D02*
X15391491Y-13679269D01*
X15391491Y-13679269D02*
X15296253Y-13698317D01*
X15467682Y-13755460D02*
X15486730Y-13764984D01*
X15486730Y-13764984D02*
X15524825Y-13764984D01*
X15524825Y-13764984D02*
X15543872Y-13755460D01*
X15543872Y-13755460D02*
X15553396Y-13736412D01*
X15553396Y-13736412D02*
X15553396Y-13726888D01*
X15553396Y-13726888D02*
X15543872Y-13707841D01*
X15543872Y-13707841D02*
X15524825Y-13698317D01*
X15524825Y-13698317D02*
X15496253Y-13698317D01*
X15496253Y-13698317D02*
X15477206Y-13688793D01*
X15477206Y-13688793D02*
X15467682Y-13669746D01*
X15467682Y-13669746D02*
X15467682Y-13660222D01*
X15467682Y-13660222D02*
X15477206Y-13641174D01*
X15477206Y-13641174D02*
X15496253Y-13631650D01*
X15496253Y-13631650D02*
X15524825Y-13631650D01*
X15524825Y-13631650D02*
X15543872Y-13641174D01*
X15620063Y-13841174D02*
X15629587Y-13831650D01*
X15629587Y-13831650D02*
X15648634Y-13803079D01*
X15648634Y-13803079D02*
X15658158Y-13784031D01*
X15658158Y-13784031D02*
X15667682Y-13755460D01*
X15667682Y-13755460D02*
X15677206Y-13707841D01*
X15677206Y-13707841D02*
X15677206Y-13669746D01*
X15677206Y-13669746D02*
X15667682Y-13622127D01*
X15667682Y-13622127D02*
X15658158Y-13593555D01*
X15658158Y-13593555D02*
X15648634Y-13574508D01*
X15648634Y-13574508D02*
X15629587Y-13545936D01*
X15629587Y-13545936D02*
X15620063Y-13536412D01*
X15981968Y-13841174D02*
X15972444Y-13831650D01*
X15972444Y-13831650D02*
X15953396Y-13803079D01*
X15953396Y-13803079D02*
X15943872Y-13784031D01*
X15943872Y-13784031D02*
X15934349Y-13755460D01*
X15934349Y-13755460D02*
X15924825Y-13707841D01*
X15924825Y-13707841D02*
X15924825Y-13669746D01*
X15924825Y-13669746D02*
X15934349Y-13622127D01*
X15934349Y-13622127D02*
X15943872Y-13593555D01*
X15943872Y-13593555D02*
X15953396Y-13574508D01*
X15953396Y-13574508D02*
X15972444Y-13545936D01*
X15972444Y-13545936D02*
X15981968Y-13536412D01*
X16058158Y-13631650D02*
X16058158Y-13764984D01*
X16058158Y-13650698D02*
X16067682Y-13641174D01*
X16067682Y-13641174D02*
X16086730Y-13631650D01*
X16086730Y-13631650D02*
X16115301Y-13631650D01*
X16115301Y-13631650D02*
X16134349Y-13641174D01*
X16134349Y-13641174D02*
X16143872Y-13660222D01*
X16143872Y-13660222D02*
X16143872Y-13764984D01*
X16267682Y-13764984D02*
X16248634Y-13755460D01*
X16248634Y-13755460D02*
X16239111Y-13745936D01*
X16239111Y-13745936D02*
X16229587Y-13726888D01*
X16229587Y-13726888D02*
X16229587Y-13669746D01*
X16229587Y-13669746D02*
X16239111Y-13650698D01*
X16239111Y-13650698D02*
X16248634Y-13641174D01*
X16248634Y-13641174D02*
X16267682Y-13631650D01*
X16267682Y-13631650D02*
X16296253Y-13631650D01*
X16296253Y-13631650D02*
X16315301Y-13641174D01*
X16315301Y-13641174D02*
X16324825Y-13650698D01*
X16324825Y-13650698D02*
X16334349Y-13669746D01*
X16334349Y-13669746D02*
X16334349Y-13726888D01*
X16334349Y-13726888D02*
X16324825Y-13745936D01*
X16324825Y-13745936D02*
X16315301Y-13755460D01*
X16315301Y-13755460D02*
X16296253Y-13764984D01*
X16296253Y-13764984D02*
X16267682Y-13764984D01*
X16391492Y-13631650D02*
X16467682Y-13631650D01*
X16420063Y-13564984D02*
X16420063Y-13736412D01*
X16420063Y-13736412D02*
X16429587Y-13755460D01*
X16429587Y-13755460D02*
X16448634Y-13764984D01*
X16448634Y-13764984D02*
X16467682Y-13764984D01*
X16686730Y-13631650D02*
X16686730Y-13831650D01*
X16686730Y-13641174D02*
X16705777Y-13631650D01*
X16705777Y-13631650D02*
X16743873Y-13631650D01*
X16743873Y-13631650D02*
X16762920Y-13641174D01*
X16762920Y-13641174D02*
X16772444Y-13650698D01*
X16772444Y-13650698D02*
X16781968Y-13669746D01*
X16781968Y-13669746D02*
X16781968Y-13726888D01*
X16781968Y-13726888D02*
X16772444Y-13745936D01*
X16772444Y-13745936D02*
X16762920Y-13755460D01*
X16762920Y-13755460D02*
X16743873Y-13764984D01*
X16743873Y-13764984D02*
X16705777Y-13764984D01*
X16705777Y-13764984D02*
X16686730Y-13755460D01*
X16896254Y-13764984D02*
X16877206Y-13755460D01*
X16877206Y-13755460D02*
X16867682Y-13736412D01*
X16867682Y-13736412D02*
X16867682Y-13564984D01*
X17058158Y-13764984D02*
X17058158Y-13660222D01*
X17058158Y-13660222D02*
X17048635Y-13641174D01*
X17048635Y-13641174D02*
X17029587Y-13631650D01*
X17029587Y-13631650D02*
X16991492Y-13631650D01*
X16991492Y-13631650D02*
X16972444Y-13641174D01*
X17058158Y-13755460D02*
X17039111Y-13764984D01*
X17039111Y-13764984D02*
X16991492Y-13764984D01*
X16991492Y-13764984D02*
X16972444Y-13755460D01*
X16972444Y-13755460D02*
X16962920Y-13736412D01*
X16962920Y-13736412D02*
X16962920Y-13717365D01*
X16962920Y-13717365D02*
X16972444Y-13698317D01*
X16972444Y-13698317D02*
X16991492Y-13688793D01*
X16991492Y-13688793D02*
X17039111Y-13688793D01*
X17039111Y-13688793D02*
X17058158Y-13679269D01*
X17124825Y-13631650D02*
X17201015Y-13631650D01*
X17153396Y-13564984D02*
X17153396Y-13736412D01*
X17153396Y-13736412D02*
X17162920Y-13755460D01*
X17162920Y-13755460D02*
X17181968Y-13764984D01*
X17181968Y-13764984D02*
X17201015Y-13764984D01*
X17343873Y-13755460D02*
X17324825Y-13764984D01*
X17324825Y-13764984D02*
X17286730Y-13764984D01*
X17286730Y-13764984D02*
X17267682Y-13755460D01*
X17267682Y-13755460D02*
X17258158Y-13736412D01*
X17258158Y-13736412D02*
X17258158Y-13660222D01*
X17258158Y-13660222D02*
X17267682Y-13641174D01*
X17267682Y-13641174D02*
X17286730Y-13631650D01*
X17286730Y-13631650D02*
X17324825Y-13631650D01*
X17324825Y-13631650D02*
X17343873Y-13641174D01*
X17343873Y-13641174D02*
X17353396Y-13660222D01*
X17353396Y-13660222D02*
X17353396Y-13679269D01*
X17353396Y-13679269D02*
X17258158Y-13698317D01*
X17524825Y-13764984D02*
X17524825Y-13564984D01*
X17524825Y-13755460D02*
X17505777Y-13764984D01*
X17505777Y-13764984D02*
X17467682Y-13764984D01*
X17467682Y-13764984D02*
X17448635Y-13755460D01*
X17448635Y-13755460D02*
X17439111Y-13745936D01*
X17439111Y-13745936D02*
X17429587Y-13726888D01*
X17429587Y-13726888D02*
X17429587Y-13669746D01*
X17429587Y-13669746D02*
X17439111Y-13650698D01*
X17439111Y-13650698D02*
X17448635Y-13641174D01*
X17448635Y-13641174D02*
X17467682Y-13631650D01*
X17467682Y-13631650D02*
X17505777Y-13631650D01*
X17505777Y-13631650D02*
X17524825Y-13641174D01*
X17601016Y-13841174D02*
X17610539Y-13831650D01*
X17610539Y-13831650D02*
X17629587Y-13803079D01*
X17629587Y-13803079D02*
X17639111Y-13784031D01*
X17639111Y-13784031D02*
X17648635Y-13755460D01*
X17648635Y-13755460D02*
X17658158Y-13707841D01*
X17658158Y-13707841D02*
X17658158Y-13669746D01*
X17658158Y-13669746D02*
X17648635Y-13622127D01*
X17648635Y-13622127D02*
X17639111Y-13593555D01*
X17639111Y-13593555D02*
X17629587Y-13574508D01*
X17629587Y-13574508D02*
X17610539Y-13545936D01*
X17610539Y-13545936D02*
X17601016Y-13536412D01*
X10845000Y-13937500D02*
G75*
G02*
X10645000Y-13937500I-100000J0D01*
G01*
X10645000Y-13937500D02*
G75*
G02*
X10845000Y-13937500I100000J0D01*
G01*
X11191491Y-13895650D02*
X11191491Y-14028984D01*
X11143872Y-13819460D02*
X11096253Y-13962317D01*
X11096253Y-13962317D02*
X11220062Y-13962317D01*
X11296253Y-14009936D02*
X11305777Y-14019460D01*
X11305777Y-14019460D02*
X11296253Y-14028984D01*
X11296253Y-14028984D02*
X11286729Y-14019460D01*
X11286729Y-14019460D02*
X11296253Y-14009936D01*
X11296253Y-14009936D02*
X11296253Y-14028984D01*
X11429586Y-13828984D02*
X11448634Y-13828984D01*
X11448634Y-13828984D02*
X11467682Y-13838508D01*
X11467682Y-13838508D02*
X11477205Y-13848031D01*
X11477205Y-13848031D02*
X11486729Y-13867079D01*
X11486729Y-13867079D02*
X11496253Y-13905174D01*
X11496253Y-13905174D02*
X11496253Y-13952793D01*
X11496253Y-13952793D02*
X11486729Y-13990888D01*
X11486729Y-13990888D02*
X11477205Y-14009936D01*
X11477205Y-14009936D02*
X11467682Y-14019460D01*
X11467682Y-14019460D02*
X11448634Y-14028984D01*
X11448634Y-14028984D02*
X11429586Y-14028984D01*
X11429586Y-14028984D02*
X11410539Y-14019460D01*
X11410539Y-14019460D02*
X11401015Y-14009936D01*
X11401015Y-14009936D02*
X11391491Y-13990888D01*
X11391491Y-13990888D02*
X11381967Y-13952793D01*
X11381967Y-13952793D02*
X11381967Y-13905174D01*
X11381967Y-13905174D02*
X11391491Y-13867079D01*
X11391491Y-13867079D02*
X11401015Y-13848031D01*
X11401015Y-13848031D02*
X11410539Y-13838508D01*
X11410539Y-13838508D02*
X11429586Y-13828984D01*
X11620062Y-13828984D02*
X11639110Y-13828984D01*
X11639110Y-13828984D02*
X11658158Y-13838508D01*
X11658158Y-13838508D02*
X11667682Y-13848031D01*
X11667682Y-13848031D02*
X11677205Y-13867079D01*
X11677205Y-13867079D02*
X11686729Y-13905174D01*
X11686729Y-13905174D02*
X11686729Y-13952793D01*
X11686729Y-13952793D02*
X11677205Y-13990888D01*
X11677205Y-13990888D02*
X11667682Y-14009936D01*
X11667682Y-14009936D02*
X11658158Y-14019460D01*
X11658158Y-14019460D02*
X11639110Y-14028984D01*
X11639110Y-14028984D02*
X11620062Y-14028984D01*
X11620062Y-14028984D02*
X11601015Y-14019460D01*
X11601015Y-14019460D02*
X11591491Y-14009936D01*
X11591491Y-14009936D02*
X11581967Y-13990888D01*
X11581967Y-13990888D02*
X11572443Y-13952793D01*
X11572443Y-13952793D02*
X11572443Y-13905174D01*
X11572443Y-13905174D02*
X11581967Y-13867079D01*
X11581967Y-13867079D02*
X11591491Y-13848031D01*
X11591491Y-13848031D02*
X11601015Y-13838508D01*
X11601015Y-13838508D02*
X11620062Y-13828984D01*
X11810539Y-13828984D02*
X11829586Y-13828984D01*
X11829586Y-13828984D02*
X11848634Y-13838508D01*
X11848634Y-13838508D02*
X11858158Y-13848031D01*
X11858158Y-13848031D02*
X11867682Y-13867079D01*
X11867682Y-13867079D02*
X11877205Y-13905174D01*
X11877205Y-13905174D02*
X11877205Y-13952793D01*
X11877205Y-13952793D02*
X11867682Y-13990888D01*
X11867682Y-13990888D02*
X11858158Y-14009936D01*
X11858158Y-14009936D02*
X11848634Y-14019460D01*
X11848634Y-14019460D02*
X11829586Y-14028984D01*
X11829586Y-14028984D02*
X11810539Y-14028984D01*
X11810539Y-14028984D02*
X11791491Y-14019460D01*
X11791491Y-14019460D02*
X11781967Y-14009936D01*
X11781967Y-14009936D02*
X11772443Y-13990888D01*
X11772443Y-13990888D02*
X11762920Y-13952793D01*
X11762920Y-13952793D02*
X11762920Y-13905174D01*
X11762920Y-13905174D02*
X11772443Y-13867079D01*
X11772443Y-13867079D02*
X11781967Y-13848031D01*
X11781967Y-13848031D02*
X11791491Y-13838508D01*
X11791491Y-13838508D02*
X11810539Y-13828984D01*
X11962920Y-14028984D02*
X11962920Y-13895650D01*
X11962920Y-13914698D02*
X11972443Y-13905174D01*
X11972443Y-13905174D02*
X11991491Y-13895650D01*
X11991491Y-13895650D02*
X12020063Y-13895650D01*
X12020063Y-13895650D02*
X12039110Y-13905174D01*
X12039110Y-13905174D02*
X12048634Y-13924222D01*
X12048634Y-13924222D02*
X12048634Y-14028984D01*
X12048634Y-13924222D02*
X12058158Y-13905174D01*
X12058158Y-13905174D02*
X12077205Y-13895650D01*
X12077205Y-13895650D02*
X12105777Y-13895650D01*
X12105777Y-13895650D02*
X12124824Y-13905174D01*
X12124824Y-13905174D02*
X12134348Y-13924222D01*
X12134348Y-13924222D02*
X12134348Y-14028984D01*
X12229586Y-14028984D02*
X12229586Y-13895650D01*
X12229586Y-13914698D02*
X12239110Y-13905174D01*
X12239110Y-13905174D02*
X12258158Y-13895650D01*
X12258158Y-13895650D02*
X12286729Y-13895650D01*
X12286729Y-13895650D02*
X12305777Y-13905174D01*
X12305777Y-13905174D02*
X12315301Y-13924222D01*
X12315301Y-13924222D02*
X12315301Y-14028984D01*
X12315301Y-13924222D02*
X12324824Y-13905174D01*
X12324824Y-13905174D02*
X12343872Y-13895650D01*
X12343872Y-13895650D02*
X12372443Y-13895650D01*
X12372443Y-13895650D02*
X12391491Y-13905174D01*
X12391491Y-13905174D02*
X12401015Y-13924222D01*
X12401015Y-13924222D02*
X12401015Y-14028984D01*
X12791491Y-13819460D02*
X12620063Y-14076603D01*
X13048634Y-13828984D02*
X13067682Y-13828984D01*
X13067682Y-13828984D02*
X13086729Y-13838508D01*
X13086729Y-13838508D02*
X13096253Y-13848031D01*
X13096253Y-13848031D02*
X13105777Y-13867079D01*
X13105777Y-13867079D02*
X13115301Y-13905174D01*
X13115301Y-13905174D02*
X13115301Y-13952793D01*
X13115301Y-13952793D02*
X13105777Y-13990888D01*
X13105777Y-13990888D02*
X13096253Y-14009936D01*
X13096253Y-14009936D02*
X13086729Y-14019460D01*
X13086729Y-14019460D02*
X13067682Y-14028984D01*
X13067682Y-14028984D02*
X13048634Y-14028984D01*
X13048634Y-14028984D02*
X13029586Y-14019460D01*
X13029586Y-14019460D02*
X13020063Y-14009936D01*
X13020063Y-14009936D02*
X13010539Y-13990888D01*
X13010539Y-13990888D02*
X13001015Y-13952793D01*
X13001015Y-13952793D02*
X13001015Y-13905174D01*
X13001015Y-13905174D02*
X13010539Y-13867079D01*
X13010539Y-13867079D02*
X13020063Y-13848031D01*
X13020063Y-13848031D02*
X13029586Y-13838508D01*
X13029586Y-13838508D02*
X13048634Y-13828984D01*
X13201015Y-14009936D02*
X13210539Y-14019460D01*
X13210539Y-14019460D02*
X13201015Y-14028984D01*
X13201015Y-14028984D02*
X13191491Y-14019460D01*
X13191491Y-14019460D02*
X13201015Y-14009936D01*
X13201015Y-14009936D02*
X13201015Y-14028984D01*
X13401015Y-14028984D02*
X13286729Y-14028984D01*
X13343872Y-14028984D02*
X13343872Y-13828984D01*
X13343872Y-13828984D02*
X13324825Y-13857555D01*
X13324825Y-13857555D02*
X13305777Y-13876603D01*
X13305777Y-13876603D02*
X13286729Y-13886127D01*
X13581967Y-13828984D02*
X13486729Y-13828984D01*
X13486729Y-13828984D02*
X13477206Y-13924222D01*
X13477206Y-13924222D02*
X13486729Y-13914698D01*
X13486729Y-13914698D02*
X13505777Y-13905174D01*
X13505777Y-13905174D02*
X13553396Y-13905174D01*
X13553396Y-13905174D02*
X13572444Y-13914698D01*
X13572444Y-13914698D02*
X13581967Y-13924222D01*
X13581967Y-13924222D02*
X13591491Y-13943269D01*
X13591491Y-13943269D02*
X13591491Y-13990888D01*
X13591491Y-13990888D02*
X13581967Y-14009936D01*
X13581967Y-14009936D02*
X13572444Y-14019460D01*
X13572444Y-14019460D02*
X13553396Y-14028984D01*
X13553396Y-14028984D02*
X13505777Y-14028984D01*
X13505777Y-14028984D02*
X13486729Y-14019460D01*
X13486729Y-14019460D02*
X13477206Y-14009936D01*
X13658158Y-13828984D02*
X13791491Y-13828984D01*
X13791491Y-13828984D02*
X13705777Y-14028984D01*
X13962920Y-13828984D02*
X13867682Y-13828984D01*
X13867682Y-13828984D02*
X13858158Y-13924222D01*
X13858158Y-13924222D02*
X13867682Y-13914698D01*
X13867682Y-13914698D02*
X13886729Y-13905174D01*
X13886729Y-13905174D02*
X13934348Y-13905174D01*
X13934348Y-13905174D02*
X13953396Y-13914698D01*
X13953396Y-13914698D02*
X13962920Y-13924222D01*
X13962920Y-13924222D02*
X13972444Y-13943269D01*
X13972444Y-13943269D02*
X13972444Y-13990888D01*
X13972444Y-13990888D02*
X13962920Y-14009936D01*
X13962920Y-14009936D02*
X13953396Y-14019460D01*
X13953396Y-14019460D02*
X13934348Y-14028984D01*
X13934348Y-14028984D02*
X13886729Y-14028984D01*
X13886729Y-14028984D02*
X13867682Y-14019460D01*
X13867682Y-14019460D02*
X13858158Y-14009936D01*
X14048634Y-13828984D02*
X14048634Y-13867079D01*
X14124825Y-13828984D02*
X14124825Y-13867079D01*
X14420063Y-14105174D02*
X14410539Y-14095650D01*
X14410539Y-14095650D02*
X14391491Y-14067079D01*
X14391491Y-14067079D02*
X14381968Y-14048031D01*
X14381968Y-14048031D02*
X14372444Y-14019460D01*
X14372444Y-14019460D02*
X14362920Y-13971841D01*
X14362920Y-13971841D02*
X14362920Y-13933746D01*
X14362920Y-13933746D02*
X14372444Y-13886127D01*
X14372444Y-13886127D02*
X14381968Y-13857555D01*
X14381968Y-13857555D02*
X14391491Y-13838508D01*
X14391491Y-13838508D02*
X14410539Y-13809936D01*
X14410539Y-13809936D02*
X14420063Y-13800412D01*
X14581968Y-13895650D02*
X14581968Y-14028984D01*
X14534348Y-13819460D02*
X14486729Y-13962317D01*
X14486729Y-13962317D02*
X14610539Y-13962317D01*
X14839110Y-14028984D02*
X14839110Y-13828984D01*
X14924825Y-14028984D02*
X14924825Y-13924222D01*
X14924825Y-13924222D02*
X14915301Y-13905174D01*
X14915301Y-13905174D02*
X14896253Y-13895650D01*
X14896253Y-13895650D02*
X14867682Y-13895650D01*
X14867682Y-13895650D02*
X14848634Y-13905174D01*
X14848634Y-13905174D02*
X14839110Y-13914698D01*
X15048634Y-14028984D02*
X15029587Y-14019460D01*
X15029587Y-14019460D02*
X15020063Y-14009936D01*
X15020063Y-14009936D02*
X15010539Y-13990888D01*
X15010539Y-13990888D02*
X15010539Y-13933746D01*
X15010539Y-13933746D02*
X15020063Y-13914698D01*
X15020063Y-13914698D02*
X15029587Y-13905174D01*
X15029587Y-13905174D02*
X15048634Y-13895650D01*
X15048634Y-13895650D02*
X15077206Y-13895650D01*
X15077206Y-13895650D02*
X15096253Y-13905174D01*
X15096253Y-13905174D02*
X15105777Y-13914698D01*
X15105777Y-13914698D02*
X15115301Y-13933746D01*
X15115301Y-13933746D02*
X15115301Y-13990888D01*
X15115301Y-13990888D02*
X15105777Y-14009936D01*
X15105777Y-14009936D02*
X15096253Y-14019460D01*
X15096253Y-14019460D02*
X15077206Y-14028984D01*
X15077206Y-14028984D02*
X15048634Y-14028984D01*
X15229587Y-14028984D02*
X15210539Y-14019460D01*
X15210539Y-14019460D02*
X15201015Y-14000412D01*
X15201015Y-14000412D02*
X15201015Y-13828984D01*
X15381968Y-14019460D02*
X15362920Y-14028984D01*
X15362920Y-14028984D02*
X15324825Y-14028984D01*
X15324825Y-14028984D02*
X15305777Y-14019460D01*
X15305777Y-14019460D02*
X15296253Y-14000412D01*
X15296253Y-14000412D02*
X15296253Y-13924222D01*
X15296253Y-13924222D02*
X15305777Y-13905174D01*
X15305777Y-13905174D02*
X15324825Y-13895650D01*
X15324825Y-13895650D02*
X15362920Y-13895650D01*
X15362920Y-13895650D02*
X15381968Y-13905174D01*
X15381968Y-13905174D02*
X15391491Y-13924222D01*
X15391491Y-13924222D02*
X15391491Y-13943269D01*
X15391491Y-13943269D02*
X15296253Y-13962317D01*
X15467682Y-14019460D02*
X15486730Y-14028984D01*
X15486730Y-14028984D02*
X15524825Y-14028984D01*
X15524825Y-14028984D02*
X15543872Y-14019460D01*
X15543872Y-14019460D02*
X15553396Y-14000412D01*
X15553396Y-14000412D02*
X15553396Y-13990888D01*
X15553396Y-13990888D02*
X15543872Y-13971841D01*
X15543872Y-13971841D02*
X15524825Y-13962317D01*
X15524825Y-13962317D02*
X15496253Y-13962317D01*
X15496253Y-13962317D02*
X15477206Y-13952793D01*
X15477206Y-13952793D02*
X15467682Y-13933746D01*
X15467682Y-13933746D02*
X15467682Y-13924222D01*
X15467682Y-13924222D02*
X15477206Y-13905174D01*
X15477206Y-13905174D02*
X15496253Y-13895650D01*
X15496253Y-13895650D02*
X15524825Y-13895650D01*
X15524825Y-13895650D02*
X15543872Y-13905174D01*
X15620063Y-14105174D02*
X15629587Y-14095650D01*
X15629587Y-14095650D02*
X15648634Y-14067079D01*
X15648634Y-14067079D02*
X15658158Y-14048031D01*
X15658158Y-14048031D02*
X15667682Y-14019460D01*
X15667682Y-14019460D02*
X15677206Y-13971841D01*
X15677206Y-13971841D02*
X15677206Y-13933746D01*
X15677206Y-13933746D02*
X15667682Y-13886127D01*
X15667682Y-13886127D02*
X15658158Y-13857555D01*
X15658158Y-13857555D02*
X15648634Y-13838508D01*
X15648634Y-13838508D02*
X15629587Y-13809936D01*
X15629587Y-13809936D02*
X15620063Y-13800412D01*
X15981968Y-14105174D02*
X15972444Y-14095650D01*
X15972444Y-14095650D02*
X15953396Y-14067079D01*
X15953396Y-14067079D02*
X15943872Y-14048031D01*
X15943872Y-14048031D02*
X15934349Y-14019460D01*
X15934349Y-14019460D02*
X15924825Y-13971841D01*
X15924825Y-13971841D02*
X15924825Y-13933746D01*
X15924825Y-13933746D02*
X15934349Y-13886127D01*
X15934349Y-13886127D02*
X15943872Y-13857555D01*
X15943872Y-13857555D02*
X15953396Y-13838508D01*
X15953396Y-13838508D02*
X15972444Y-13809936D01*
X15972444Y-13809936D02*
X15981968Y-13800412D01*
X16058158Y-13895650D02*
X16058158Y-14028984D01*
X16058158Y-13914698D02*
X16067682Y-13905174D01*
X16067682Y-13905174D02*
X16086730Y-13895650D01*
X16086730Y-13895650D02*
X16115301Y-13895650D01*
X16115301Y-13895650D02*
X16134349Y-13905174D01*
X16134349Y-13905174D02*
X16143872Y-13924222D01*
X16143872Y-13924222D02*
X16143872Y-14028984D01*
X16267682Y-14028984D02*
X16248634Y-14019460D01*
X16248634Y-14019460D02*
X16239111Y-14009936D01*
X16239111Y-14009936D02*
X16229587Y-13990888D01*
X16229587Y-13990888D02*
X16229587Y-13933746D01*
X16229587Y-13933746D02*
X16239111Y-13914698D01*
X16239111Y-13914698D02*
X16248634Y-13905174D01*
X16248634Y-13905174D02*
X16267682Y-13895650D01*
X16267682Y-13895650D02*
X16296253Y-13895650D01*
X16296253Y-13895650D02*
X16315301Y-13905174D01*
X16315301Y-13905174D02*
X16324825Y-13914698D01*
X16324825Y-13914698D02*
X16334349Y-13933746D01*
X16334349Y-13933746D02*
X16334349Y-13990888D01*
X16334349Y-13990888D02*
X16324825Y-14009936D01*
X16324825Y-14009936D02*
X16315301Y-14019460D01*
X16315301Y-14019460D02*
X16296253Y-14028984D01*
X16296253Y-14028984D02*
X16267682Y-14028984D01*
X16391492Y-13895650D02*
X16467682Y-13895650D01*
X16420063Y-13828984D02*
X16420063Y-14000412D01*
X16420063Y-14000412D02*
X16429587Y-14019460D01*
X16429587Y-14019460D02*
X16448634Y-14028984D01*
X16448634Y-14028984D02*
X16467682Y-14028984D01*
X16686730Y-13895650D02*
X16686730Y-14095650D01*
X16686730Y-13905174D02*
X16705777Y-13895650D01*
X16705777Y-13895650D02*
X16743873Y-13895650D01*
X16743873Y-13895650D02*
X16762920Y-13905174D01*
X16762920Y-13905174D02*
X16772444Y-13914698D01*
X16772444Y-13914698D02*
X16781968Y-13933746D01*
X16781968Y-13933746D02*
X16781968Y-13990888D01*
X16781968Y-13990888D02*
X16772444Y-14009936D01*
X16772444Y-14009936D02*
X16762920Y-14019460D01*
X16762920Y-14019460D02*
X16743873Y-14028984D01*
X16743873Y-14028984D02*
X16705777Y-14028984D01*
X16705777Y-14028984D02*
X16686730Y-14019460D01*
X16896254Y-14028984D02*
X16877206Y-14019460D01*
X16877206Y-14019460D02*
X16867682Y-14000412D01*
X16867682Y-14000412D02*
X16867682Y-13828984D01*
X17058158Y-14028984D02*
X17058158Y-13924222D01*
X17058158Y-13924222D02*
X17048635Y-13905174D01*
X17048635Y-13905174D02*
X17029587Y-13895650D01*
X17029587Y-13895650D02*
X16991492Y-13895650D01*
X16991492Y-13895650D02*
X16972444Y-13905174D01*
X17058158Y-14019460D02*
X17039111Y-14028984D01*
X17039111Y-14028984D02*
X16991492Y-14028984D01*
X16991492Y-14028984D02*
X16972444Y-14019460D01*
X16972444Y-14019460D02*
X16962920Y-14000412D01*
X16962920Y-14000412D02*
X16962920Y-13981365D01*
X16962920Y-13981365D02*
X16972444Y-13962317D01*
X16972444Y-13962317D02*
X16991492Y-13952793D01*
X16991492Y-13952793D02*
X17039111Y-13952793D01*
X17039111Y-13952793D02*
X17058158Y-13943269D01*
X17124825Y-13895650D02*
X17201015Y-13895650D01*
X17153396Y-13828984D02*
X17153396Y-14000412D01*
X17153396Y-14000412D02*
X17162920Y-14019460D01*
X17162920Y-14019460D02*
X17181968Y-14028984D01*
X17181968Y-14028984D02*
X17201015Y-14028984D01*
X17343873Y-14019460D02*
X17324825Y-14028984D01*
X17324825Y-14028984D02*
X17286730Y-14028984D01*
X17286730Y-14028984D02*
X17267682Y-14019460D01*
X17267682Y-14019460D02*
X17258158Y-14000412D01*
X17258158Y-14000412D02*
X17258158Y-13924222D01*
X17258158Y-13924222D02*
X17267682Y-13905174D01*
X17267682Y-13905174D02*
X17286730Y-13895650D01*
X17286730Y-13895650D02*
X17324825Y-13895650D01*
X17324825Y-13895650D02*
X17343873Y-13905174D01*
X17343873Y-13905174D02*
X17353396Y-13924222D01*
X17353396Y-13924222D02*
X17353396Y-13943269D01*
X17353396Y-13943269D02*
X17258158Y-13962317D01*
X17524825Y-14028984D02*
X17524825Y-13828984D01*
X17524825Y-14019460D02*
X17505777Y-14028984D01*
X17505777Y-14028984D02*
X17467682Y-14028984D01*
X17467682Y-14028984D02*
X17448635Y-14019460D01*
X17448635Y-14019460D02*
X17439111Y-14009936D01*
X17439111Y-14009936D02*
X17429587Y-13990888D01*
X17429587Y-13990888D02*
X17429587Y-13933746D01*
X17429587Y-13933746D02*
X17439111Y-13914698D01*
X17439111Y-13914698D02*
X17448635Y-13905174D01*
X17448635Y-13905174D02*
X17467682Y-13895650D01*
X17467682Y-13895650D02*
X17505777Y-13895650D01*
X17505777Y-13895650D02*
X17524825Y-13905174D01*
X17601016Y-14105174D02*
X17610539Y-14095650D01*
X17610539Y-14095650D02*
X17629587Y-14067079D01*
X17629587Y-14067079D02*
X17639111Y-14048031D01*
X17639111Y-14048031D02*
X17648635Y-14019460D01*
X17648635Y-14019460D02*
X17658158Y-13971841D01*
X17658158Y-13971841D02*
X17658158Y-13933746D01*
X17658158Y-13933746D02*
X17648635Y-13886127D01*
X17648635Y-13886127D02*
X17639111Y-13857555D01*
X17639111Y-13857555D02*
X17629587Y-13838508D01*
X17629587Y-13838508D02*
X17610539Y-13809936D01*
X17610539Y-13809936D02*
X17601016Y-13800412D01*
M02*
