G04 #@! TF.GenerationSoftware,KiCad,Pcbnew,9.0.2*
G04 #@! TF.CreationDate,2025-09-10T14:09:23+05:30*
G04 #@! TF.ProjectId,V2DesignESP32PCB,56324465-7369-4676-9e45-535033325043,rev?*
G04 #@! TF.SameCoordinates,Original*
G04 #@! TF.FileFunction,Paste,Top*
G04 #@! TF.FilePolarity,Positive*
%FSLAX46Y46*%
G04 Gerber Fmt 4.6, Leading zero omitted, Abs format (unit mm)*
G04 Created by KiCad (PCBNEW 9.0.2) date 2025-09-10 14:09:23*
%MOMM*%
%LPD*%
G01*
G04 APERTURE LIST*
G04 Aperture macros list*
%AMRoundRect*
0 Rectangle with rounded corners*
0 $1 Rounding radius*
0 $2 $3 $4 $5 $6 $7 $8 $9 X,Y pos of 4 corners*
0 Add a 4 corners polygon primitive as box body*
4,1,4,$2,$3,$4,$5,$6,$7,$8,$9,$2,$3,0*
0 Add four circle primitives for the rounded corners*
1,1,$1+$1,$2,$3*
1,1,$1+$1,$4,$5*
1,1,$1+$1,$6,$7*
1,1,$1+$1,$8,$9*
0 Add four rect primitives between the rounded corners*
20,1,$1+$1,$2,$3,$4,$5,0*
20,1,$1+$1,$4,$5,$6,$7,0*
20,1,$1+$1,$6,$7,$8,$9,0*
20,1,$1+$1,$8,$9,$2,$3,0*%
G04 Aperture macros list end*
%ADD10C,0.010000*%
%ADD11RoundRect,0.250000X-0.475000X0.250000X-0.475000X-0.250000X0.475000X-0.250000X0.475000X0.250000X0*%
%ADD12RoundRect,0.250000X0.262500X0.450000X-0.262500X0.450000X-0.262500X-0.450000X0.262500X-0.450000X0*%
%ADD13R,1.750000X0.450000*%
%ADD14RoundRect,0.250000X0.250000X0.475000X-0.250000X0.475000X-0.250000X-0.475000X0.250000X-0.475000X0*%
%ADD15RoundRect,0.200000X-0.275000X0.200000X-0.275000X-0.200000X0.275000X-0.200000X0.275000X0.200000X0*%
%ADD16RoundRect,0.200000X-0.200000X-0.275000X0.200000X-0.275000X0.200000X0.275000X-0.200000X0.275000X0*%
%ADD17RoundRect,0.225000X-0.225000X-0.250000X0.225000X-0.250000X0.225000X0.250000X-0.225000X0.250000X0*%
%ADD18R,3.200000X1.500000*%
%ADD19RoundRect,0.150000X-0.850000X-0.150000X0.850000X-0.150000X0.850000X0.150000X-0.850000X0.150000X0*%
%ADD20RoundRect,0.225000X0.225000X-0.225000X0.225000X0.225000X-0.225000X0.225000X-0.225000X-0.225000X0*%
%ADD21RoundRect,0.062500X0.062500X-0.337500X0.062500X0.337500X-0.062500X0.337500X-0.062500X-0.337500X0*%
%ADD22RoundRect,0.062500X0.337500X-0.062500X0.337500X0.062500X-0.337500X0.062500X-0.337500X-0.062500X0*%
%ADD23RoundRect,0.250000X-0.250000X-0.475000X0.250000X-0.475000X0.250000X0.475000X-0.250000X0.475000X0*%
%ADD24RoundRect,0.250000X-0.450000X-0.250000X0.450000X-0.250000X0.450000X0.250000X-0.450000X0.250000X0*%
%ADD25RoundRect,0.250000X0.475000X-0.250000X0.475000X0.250000X-0.475000X0.250000X-0.475000X-0.250000X0*%
%ADD26RoundRect,0.243750X0.243750X0.456250X-0.243750X0.456250X-0.243750X-0.456250X0.243750X-0.456250X0*%
%ADD27RoundRect,0.250000X-0.450000X0.262500X-0.450000X-0.262500X0.450000X-0.262500X0.450000X0.262500X0*%
%ADD28RoundRect,0.075000X-0.350000X-0.075000X0.350000X-0.075000X0.350000X0.075000X-0.350000X0.075000X0*%
%ADD29RoundRect,0.075000X0.075000X-0.350000X0.075000X0.350000X-0.075000X0.350000X-0.075000X-0.350000X0*%
%ADD30RoundRect,0.200000X0.200000X0.275000X-0.200000X0.275000X-0.200000X-0.275000X0.200000X-0.275000X0*%
%ADD31R,0.650000X1.050000*%
%ADD32RoundRect,0.100000X-0.100000X0.712500X-0.100000X-0.712500X0.100000X-0.712500X0.100000X0.712500X0*%
%ADD33RoundRect,0.100000X-0.100000X0.637500X-0.100000X-0.637500X0.100000X-0.637500X0.100000X0.637500X0*%
%ADD34RoundRect,0.243750X0.456250X-0.243750X0.456250X0.243750X-0.456250X0.243750X-0.456250X-0.243750X0*%
%ADD35RoundRect,0.225000X0.225000X0.250000X-0.225000X0.250000X-0.225000X-0.250000X0.225000X-0.250000X0*%
%ADD36RoundRect,0.250000X-0.262500X-0.450000X0.262500X-0.450000X0.262500X0.450000X-0.262500X0.450000X0*%
%ADD37RoundRect,0.225000X0.250000X-0.225000X0.250000X0.225000X-0.250000X0.225000X-0.250000X-0.225000X0*%
%ADD38RoundRect,0.200000X0.275000X-0.200000X0.275000X0.200000X-0.275000X0.200000X-0.275000X-0.200000X0*%
%ADD39RoundRect,0.150000X0.587500X0.150000X-0.587500X0.150000X-0.587500X-0.150000X0.587500X-0.150000X0*%
%ADD40RoundRect,0.225000X-0.250000X0.225000X-0.250000X-0.225000X0.250000X-0.225000X0.250000X0.225000X0*%
%ADD41RoundRect,0.150000X-0.150000X-0.425000X0.150000X-0.425000X0.150000X0.425000X-0.150000X0.425000X0*%
%ADD42RoundRect,0.075000X-0.075000X-0.500000X0.075000X-0.500000X0.075000X0.500000X-0.075000X0.500000X0*%
%ADD43O,1.000000X2.100000*%
%ADD44O,1.000000X1.800000*%
%ADD45R,0.250000X0.625000*%
%ADD46R,0.450000X0.700000*%
%ADD47R,0.450000X0.575000*%
%ADD48R,1.000000X2.150000*%
%ADD49R,3.250000X2.150000*%
%ADD50RoundRect,0.150000X0.150000X-0.587500X0.150000X0.587500X-0.150000X0.587500X-0.150000X-0.587500X0*%
%ADD51RoundRect,0.225000X0.225000X0.375000X-0.225000X0.375000X-0.225000X-0.375000X0.225000X-0.375000X0*%
%ADD52RoundRect,0.090000X-0.660000X-0.360000X0.660000X-0.360000X0.660000X0.360000X-0.660000X0.360000X0*%
%ADD53R,1.500000X0.900000*%
%ADD54R,0.900000X1.500000*%
%ADD55R,1.050000X1.050000*%
%ADD56RoundRect,0.375000X-0.375000X0.625000X-0.375000X-0.625000X0.375000X-0.625000X0.375000X0.625000X0*%
%ADD57RoundRect,0.500000X-1.400000X0.500000X-1.400000X-0.500000X1.400000X-0.500000X1.400000X0.500000X0*%
%ADD58RoundRect,0.250000X1.000000X0.650000X-1.000000X0.650000X-1.000000X-0.650000X1.000000X-0.650000X0*%
G04 APERTURE END LIST*
D10*
G04 #@! TO.C,C47*
X184450000Y-63200000D02*
X185550000Y-63200000D01*
X185550000Y-64500000D01*
X184450000Y-64500000D01*
X184450000Y-65500000D01*
X181950000Y-65500000D01*
X181950000Y-64500000D01*
X180850000Y-64500000D01*
X180850000Y-63200000D01*
X181950000Y-63200000D01*
X181950000Y-61500000D01*
X184450000Y-61500000D01*
X184450000Y-63200000D01*
G36*
X184450000Y-63200000D02*
G01*
X185550000Y-63200000D01*
X185550000Y-64500000D01*
X184450000Y-64500000D01*
X184450000Y-65500000D01*
X181950000Y-65500000D01*
X181950000Y-64500000D01*
X180850000Y-64500000D01*
X180850000Y-63200000D01*
X181950000Y-63200000D01*
X181950000Y-61500000D01*
X184450000Y-61500000D01*
X184450000Y-63200000D01*
G37*
X184450000Y-69200000D02*
X185550000Y-69200000D01*
X185550000Y-70500000D01*
X184450000Y-70500000D01*
X184450000Y-72200000D01*
X181950000Y-72200000D01*
X181950000Y-70500000D01*
X180850000Y-70500000D01*
X180850000Y-69200000D01*
X181950000Y-69200000D01*
X181950000Y-68200000D01*
X184450000Y-68200000D01*
X184450000Y-69200000D01*
G36*
X184450000Y-69200000D02*
G01*
X185550000Y-69200000D01*
X185550000Y-70500000D01*
X184450000Y-70500000D01*
X184450000Y-72200000D01*
X181950000Y-72200000D01*
X181950000Y-70500000D01*
X180850000Y-70500000D01*
X180850000Y-69200000D01*
X181950000Y-69200000D01*
X181950000Y-68200000D01*
X184450000Y-68200000D01*
X184450000Y-69200000D01*
G37*
G04 #@! TO.C,C30*
X183150000Y-104600000D02*
X184250000Y-104600000D01*
X184250000Y-105900000D01*
X183150000Y-105900000D01*
X183150000Y-106900000D01*
X180650000Y-106900000D01*
X180650000Y-105900000D01*
X179550000Y-105900000D01*
X179550000Y-104600000D01*
X180650000Y-104600000D01*
X180650000Y-102900000D01*
X183150000Y-102900000D01*
X183150000Y-104600000D01*
G36*
X183150000Y-104600000D02*
G01*
X184250000Y-104600000D01*
X184250000Y-105900000D01*
X183150000Y-105900000D01*
X183150000Y-106900000D01*
X180650000Y-106900000D01*
X180650000Y-105900000D01*
X179550000Y-105900000D01*
X179550000Y-104600000D01*
X180650000Y-104600000D01*
X180650000Y-102900000D01*
X183150000Y-102900000D01*
X183150000Y-104600000D01*
G37*
X183150000Y-110600000D02*
X184250000Y-110600000D01*
X184250000Y-111900000D01*
X183150000Y-111900000D01*
X183150000Y-113600000D01*
X180650000Y-113600000D01*
X180650000Y-111900000D01*
X179550000Y-111900000D01*
X179550000Y-110600000D01*
X180650000Y-110600000D01*
X180650000Y-109600000D01*
X183150000Y-109600000D01*
X183150000Y-110600000D01*
G36*
X183150000Y-110600000D02*
G01*
X184250000Y-110600000D01*
X184250000Y-111900000D01*
X183150000Y-111900000D01*
X183150000Y-113600000D01*
X180650000Y-113600000D01*
X180650000Y-111900000D01*
X179550000Y-111900000D01*
X179550000Y-110600000D01*
X180650000Y-110600000D01*
X180650000Y-109600000D01*
X183150000Y-109600000D01*
X183150000Y-110600000D01*
G37*
G04 #@! TO.C,C48*
X136200000Y-120500000D02*
X137300000Y-120500000D01*
X137300000Y-121800000D01*
X136200000Y-121800000D01*
X136200000Y-122800000D01*
X133700000Y-122800000D01*
X133700000Y-121800000D01*
X132600000Y-121800000D01*
X132600000Y-120500000D01*
X133700000Y-120500000D01*
X133700000Y-118800000D01*
X136200000Y-118800000D01*
X136200000Y-120500000D01*
G36*
X136200000Y-120500000D02*
G01*
X137300000Y-120500000D01*
X137300000Y-121800000D01*
X136200000Y-121800000D01*
X136200000Y-122800000D01*
X133700000Y-122800000D01*
X133700000Y-121800000D01*
X132600000Y-121800000D01*
X132600000Y-120500000D01*
X133700000Y-120500000D01*
X133700000Y-118800000D01*
X136200000Y-118800000D01*
X136200000Y-120500000D01*
G37*
X136200000Y-126500000D02*
X137300000Y-126500000D01*
X137300000Y-127800000D01*
X136200000Y-127800000D01*
X136200000Y-129500000D01*
X133700000Y-129500000D01*
X133700000Y-127800000D01*
X132600000Y-127800000D01*
X132600000Y-126500000D01*
X133700000Y-126500000D01*
X133700000Y-125500000D01*
X136200000Y-125500000D01*
X136200000Y-126500000D01*
G36*
X136200000Y-126500000D02*
G01*
X137300000Y-126500000D01*
X137300000Y-127800000D01*
X136200000Y-127800000D01*
X136200000Y-129500000D01*
X133700000Y-129500000D01*
X133700000Y-127800000D01*
X132600000Y-127800000D01*
X132600000Y-126500000D01*
X133700000Y-126500000D01*
X133700000Y-125500000D01*
X136200000Y-125500000D01*
X136200000Y-126500000D01*
G37*
G04 #@! TO.C,C29*
X189750000Y-108300000D02*
X190750000Y-108300000D01*
X190750000Y-110800000D01*
X189750000Y-110800000D01*
X189750000Y-111900000D01*
X188450000Y-111900000D01*
X188450000Y-110800000D01*
X186750000Y-110800000D01*
X186750000Y-108300000D01*
X188450000Y-108300000D01*
X188450000Y-107200000D01*
X189750000Y-107200000D01*
X189750000Y-108300000D01*
G36*
X189750000Y-108300000D02*
G01*
X190750000Y-108300000D01*
X190750000Y-110800000D01*
X189750000Y-110800000D01*
X189750000Y-111900000D01*
X188450000Y-111900000D01*
X188450000Y-110800000D01*
X186750000Y-110800000D01*
X186750000Y-108300000D01*
X188450000Y-108300000D01*
X188450000Y-107200000D01*
X189750000Y-107200000D01*
X189750000Y-108300000D01*
G37*
X195750000Y-108300000D02*
X197450000Y-108300000D01*
X197450000Y-110800000D01*
X195750000Y-110800000D01*
X195750000Y-111900000D01*
X194450000Y-111900000D01*
X194450000Y-110800000D01*
X193450000Y-110800000D01*
X193450000Y-108300000D01*
X194450000Y-108300000D01*
X194450000Y-107200000D01*
X195750000Y-107200000D01*
X195750000Y-108300000D01*
G36*
X195750000Y-108300000D02*
G01*
X197450000Y-108300000D01*
X197450000Y-110800000D01*
X195750000Y-110800000D01*
X195750000Y-111900000D01*
X194450000Y-111900000D01*
X194450000Y-110800000D01*
X193450000Y-110800000D01*
X193450000Y-108300000D01*
X194450000Y-108300000D01*
X194450000Y-107200000D01*
X195750000Y-107200000D01*
X195750000Y-108300000D01*
G37*
G04 #@! TD*
D11*
G04 #@! TO.C,C40*
X120000000Y-67200000D03*
X120000000Y-69100000D03*
G04 #@! TD*
D12*
G04 #@! TO.C,R19*
X186912500Y-98000000D03*
X185087500Y-98000000D03*
G04 #@! TD*
D13*
G04 #@! TO.C,U14*
X127100000Y-93025000D03*
X127100000Y-93675000D03*
X127100000Y-94325000D03*
X127100000Y-94975000D03*
X127100000Y-95625000D03*
X127100000Y-96275000D03*
X127100000Y-96925000D03*
X127100000Y-97575000D03*
X127100000Y-98225000D03*
X127100000Y-98875000D03*
X127100000Y-99525000D03*
X127100000Y-100175000D03*
X134300000Y-100175000D03*
X134300000Y-99525000D03*
X134300000Y-98875000D03*
X134300000Y-98225000D03*
X134300000Y-97575000D03*
X134300000Y-96925000D03*
X134300000Y-96275000D03*
X134300000Y-95625000D03*
X134300000Y-94975000D03*
X134300000Y-94325000D03*
X134300000Y-93675000D03*
X134300000Y-93025000D03*
G04 #@! TD*
D14*
G04 #@! TO.C,C54*
X130250000Y-76800000D03*
X128350000Y-76800000D03*
G04 #@! TD*
D15*
G04 #@! TO.C,R27*
X151800000Y-109400000D03*
X151800000Y-111050000D03*
G04 #@! TD*
D16*
G04 #@! TO.C,R14*
X128125000Y-113750000D03*
X129775000Y-113750000D03*
G04 #@! TD*
D17*
G04 #@! TO.C,C38*
X156125000Y-114900000D03*
X157675000Y-114900000D03*
G04 #@! TD*
D18*
G04 #@! TO.C,F1*
X162150000Y-116400000D03*
X162150000Y-112200000D03*
G04 #@! TD*
D14*
G04 #@! TO.C,C32*
X168950000Y-116000000D03*
X167050000Y-116000000D03*
G04 #@! TD*
D16*
G04 #@! TO.C,R21*
X156075000Y-113350000D03*
X157725000Y-113350000D03*
G04 #@! TD*
D19*
G04 #@! TO.C,U16*
X133250000Y-73680000D03*
X133250000Y-74950000D03*
X133250000Y-76220000D03*
X133250000Y-77490000D03*
X133250000Y-78760000D03*
X133250000Y-80030000D03*
X133250000Y-81300000D03*
X133250000Y-82570000D03*
X138250000Y-82570000D03*
X138250000Y-81300000D03*
X138250000Y-80030000D03*
X138250000Y-78760000D03*
X138250000Y-77490000D03*
X138250000Y-76220000D03*
X138250000Y-74950000D03*
X138250000Y-73680000D03*
G04 #@! TD*
D14*
G04 #@! TO.C,C57*
X130250000Y-81050000D03*
X128350000Y-81050000D03*
G04 #@! TD*
D20*
G04 #@! TO.C,U13*
X149630000Y-116320000D03*
X150750000Y-116320000D03*
X151870000Y-116320000D03*
X149630000Y-115200000D03*
X150750000Y-115200000D03*
X151870000Y-115200000D03*
X149630000Y-114080000D03*
X150750000Y-114080000D03*
X151870000Y-114080000D03*
D21*
X149250000Y-117650000D03*
X149750000Y-117650000D03*
X150250000Y-117650000D03*
X150750000Y-117650000D03*
X151250000Y-117650000D03*
X151750000Y-117650000D03*
X152250000Y-117650000D03*
D22*
X153200000Y-116700000D03*
X153200000Y-116200000D03*
X153200000Y-115700000D03*
X153200000Y-115200000D03*
X153200000Y-114700000D03*
X153200000Y-114200000D03*
X153200000Y-113700000D03*
D21*
X152250000Y-112750000D03*
X151750000Y-112750000D03*
X151250000Y-112750000D03*
X150750000Y-112750000D03*
X150250000Y-112750000D03*
X149750000Y-112750000D03*
X149250000Y-112750000D03*
D22*
X148300000Y-113700000D03*
X148300000Y-114200000D03*
X148300000Y-114700000D03*
X148300000Y-115200000D03*
X148300000Y-115700000D03*
X148300000Y-116200000D03*
X148300000Y-116700000D03*
G04 #@! TD*
D11*
G04 #@! TO.C,C12*
X151900000Y-88650000D03*
X151900000Y-90550000D03*
G04 #@! TD*
D23*
G04 #@! TO.C,C53*
X128450000Y-74600000D03*
X130350000Y-74600000D03*
G04 #@! TD*
D24*
G04 #@! TO.C,Q1*
X172750000Y-113150000D03*
X172750000Y-115050000D03*
X174950000Y-114100000D03*
G04 #@! TD*
D25*
G04 #@! TO.C,C36*
X169000000Y-123950000D03*
X169000000Y-122050000D03*
G04 #@! TD*
D26*
G04 #@! TO.C,D5*
X168937500Y-112000000D03*
X167062500Y-112000000D03*
G04 #@! TD*
D27*
G04 #@! TO.C,R17*
X165000000Y-122087500D03*
X165000000Y-123912500D03*
G04 #@! TD*
D28*
G04 #@! TO.C,U6*
X132050000Y-111800000D03*
X132050000Y-112300000D03*
X132050000Y-112800000D03*
X132050000Y-113300000D03*
X132050000Y-113800000D03*
X132050000Y-114300000D03*
D29*
X132750000Y-115000000D03*
X133250000Y-115000000D03*
X133750000Y-115000000D03*
X134250000Y-115000000D03*
X134750000Y-115000000D03*
X135250000Y-115000000D03*
D28*
X135950000Y-114300000D03*
X135950000Y-113800000D03*
X135950000Y-113300000D03*
X135950000Y-112800000D03*
X135950000Y-112300000D03*
X135950000Y-111800000D03*
D29*
X135250000Y-111100000D03*
X134750000Y-111100000D03*
X134250000Y-111100000D03*
X133750000Y-111100000D03*
X133250000Y-111100000D03*
X132750000Y-111100000D03*
G04 #@! TD*
D30*
G04 #@! TO.C,R26*
X146175000Y-113300000D03*
X144525000Y-113300000D03*
G04 #@! TD*
D31*
G04 #@! TO.C,SW1*
X143275000Y-129225000D03*
X143275000Y-125075000D03*
X145425000Y-129225000D03*
X145425000Y-125075000D03*
G04 #@! TD*
D32*
G04 #@! TO.C,U11*
X176000000Y-106775000D03*
X175350000Y-106775000D03*
X174700000Y-106775000D03*
X174050000Y-106775000D03*
X174050000Y-111000000D03*
X174700000Y-111000000D03*
X175350000Y-111000000D03*
X176000000Y-111000000D03*
G04 #@! TD*
D23*
G04 #@! TO.C,C55*
X128400000Y-83150000D03*
X130300000Y-83150000D03*
G04 #@! TD*
D12*
G04 #@! TO.C,R2*
X145262500Y-121100000D03*
X143437500Y-121100000D03*
G04 #@! TD*
D33*
G04 #@! TO.C,U8*
X157225000Y-93587500D03*
X156575000Y-93587500D03*
X155925000Y-93587500D03*
X155275000Y-93587500D03*
X154625000Y-93587500D03*
X153975000Y-93587500D03*
X153325000Y-93587500D03*
X152675000Y-93587500D03*
X152025000Y-93587500D03*
X151375000Y-93587500D03*
X151375000Y-99312500D03*
X152025000Y-99312500D03*
X152675000Y-99312500D03*
X153325000Y-99312500D03*
X153975000Y-99312500D03*
X154625000Y-99312500D03*
X155275000Y-99312500D03*
X155925000Y-99312500D03*
X156575000Y-99312500D03*
X157225000Y-99312500D03*
G04 #@! TD*
D11*
G04 #@! TO.C,C39*
X128300000Y-67150000D03*
X128300000Y-69050000D03*
G04 #@! TD*
D16*
G04 #@! TO.C,R5*
X166050000Y-70350000D03*
X167700000Y-70350000D03*
G04 #@! TD*
D11*
G04 #@! TO.C,C2*
X174350000Y-93500000D03*
X174350000Y-95400000D03*
G04 #@! TD*
D16*
G04 #@! TO.C,R4*
X166050000Y-68350000D03*
X167700000Y-68350000D03*
G04 #@! TD*
D34*
G04 #@! TO.C,D4*
X163000000Y-123937500D03*
X163000000Y-122062500D03*
G04 #@! TD*
D11*
G04 #@! TO.C,C35*
X167000000Y-118050000D03*
X167000000Y-119950000D03*
G04 #@! TD*
D35*
G04 #@! TO.C,C49*
X142775000Y-74000000D03*
X141225000Y-74000000D03*
G04 #@! TD*
G04 #@! TO.C,C25*
X129650000Y-115650000D03*
X128100000Y-115650000D03*
G04 #@! TD*
D16*
G04 #@! TO.C,R13*
X168225000Y-101100000D03*
X169875000Y-101100000D03*
G04 #@! TD*
D36*
G04 #@! TO.C,R37*
X189237500Y-75650000D03*
X191062500Y-75650000D03*
G04 #@! TD*
D23*
G04 #@! TO.C,C44*
X176100000Y-73000000D03*
X178000000Y-73000000D03*
G04 #@! TD*
D11*
G04 #@! TO.C,C1*
X171750000Y-93500000D03*
X171750000Y-95400000D03*
G04 #@! TD*
D37*
G04 #@! TO.C,C52*
X143000000Y-69775000D03*
X143000000Y-68225000D03*
G04 #@! TD*
D30*
G04 #@! TO.C,R15*
X132475000Y-108700000D03*
X130825000Y-108700000D03*
G04 #@! TD*
G04 #@! TO.C,R22*
X157700000Y-116450000D03*
X156050000Y-116450000D03*
G04 #@! TD*
D31*
G04 #@! TO.C,SW2*
X158225000Y-128975000D03*
X158225000Y-124825000D03*
X160375000Y-128975000D03*
X160375000Y-124825000D03*
G04 #@! TD*
D38*
G04 #@! TO.C,R30*
X151700000Y-107650000D03*
X151700000Y-106000000D03*
G04 #@! TD*
D17*
G04 #@! TO.C,C37*
X156100000Y-118000000D03*
X157650000Y-118000000D03*
G04 #@! TD*
D16*
G04 #@! TO.C,R24*
X156150000Y-110200000D03*
X157800000Y-110200000D03*
G04 #@! TD*
D17*
G04 #@! TO.C,C28*
X133225000Y-117400000D03*
X134775000Y-117400000D03*
G04 #@! TD*
D23*
G04 #@! TO.C,C11*
X156750000Y-104350000D03*
X158650000Y-104350000D03*
G04 #@! TD*
D36*
G04 #@! TO.C,R18*
X185087500Y-100000000D03*
X186912500Y-100000000D03*
G04 #@! TD*
D35*
G04 #@! TO.C,C26*
X129725000Y-111950000D03*
X128175000Y-111950000D03*
G04 #@! TD*
D39*
G04 #@! TO.C,Q4*
X146787500Y-111237500D03*
X146787500Y-109337500D03*
X144912500Y-110287500D03*
G04 #@! TD*
D14*
G04 #@! TO.C,C41*
X121500000Y-122650000D03*
X119600000Y-122650000D03*
G04 #@! TD*
D15*
G04 #@! TO.C,R9*
X156600000Y-89875000D03*
X156600000Y-91525000D03*
G04 #@! TD*
D30*
G04 #@! TO.C,R31*
X142825000Y-72000000D03*
X141175000Y-72000000D03*
G04 #@! TD*
D40*
G04 #@! TO.C,C27*
X137900000Y-111575000D03*
X137900000Y-113125000D03*
G04 #@! TD*
D30*
G04 #@! TO.C,R23*
X157750000Y-111800000D03*
X156100000Y-111800000D03*
G04 #@! TD*
D41*
G04 #@! TO.C,JUSB1*
X148600000Y-122910000D03*
X149400000Y-122910000D03*
D42*
X150550000Y-122910000D03*
X151550000Y-122910000D03*
X152050000Y-122910000D03*
X153050000Y-122910000D03*
D41*
X154200000Y-122910000D03*
X155000000Y-122910000D03*
X155000000Y-122910000D03*
X154200000Y-122910000D03*
D42*
X153550000Y-122910000D03*
X152550000Y-122910000D03*
X151050000Y-122910000D03*
X150050000Y-122910000D03*
D41*
X149400000Y-122910000D03*
X148600000Y-122910000D03*
D43*
X147480000Y-123485000D03*
D44*
X147480000Y-127665000D03*
D43*
X156120000Y-123485000D03*
D44*
X156120000Y-127665000D03*
G04 #@! TD*
D45*
G04 #@! TO.C,U2*
X150750000Y-120575000D03*
X151250000Y-120575000D03*
D46*
X151750000Y-120537500D03*
D45*
X152250000Y-120575000D03*
X152750000Y-120575000D03*
X152750000Y-119800000D03*
X152250000Y-119800000D03*
D47*
X151750000Y-119775000D03*
D45*
X151250000Y-119800000D03*
X150750000Y-119800000D03*
G04 #@! TD*
D30*
G04 #@! TO.C,R25*
X146175000Y-114950000D03*
X144525000Y-114950000D03*
G04 #@! TD*
D38*
G04 #@! TO.C,R29*
X145950000Y-107650000D03*
X145950000Y-106000000D03*
G04 #@! TD*
D48*
G04 #@! TO.C,U10*
X189700000Y-102900000D03*
X192000000Y-102900000D03*
X194300000Y-102900000D03*
D49*
X192000000Y-97100000D03*
G04 #@! TD*
D36*
G04 #@! TO.C,R20*
X167087500Y-114000000D03*
X168912500Y-114000000D03*
G04 #@! TD*
D25*
G04 #@! TO.C,C34*
X167000000Y-123950000D03*
X167000000Y-122050000D03*
G04 #@! TD*
D12*
G04 #@! TO.C,R1*
X145262500Y-123100000D03*
X143437500Y-123100000D03*
G04 #@! TD*
D23*
G04 #@! TO.C,C42*
X126800000Y-122700000D03*
X128700000Y-122700000D03*
G04 #@! TD*
D15*
G04 #@! TO.C,R32*
X163000000Y-88175000D03*
X163000000Y-89825000D03*
G04 #@! TD*
D26*
G04 #@! TO.C,D7*
X191087500Y-79800000D03*
X189212500Y-79800000D03*
G04 #@! TD*
D16*
G04 #@! TO.C,R28*
X148625000Y-109525000D03*
X150275000Y-109525000D03*
G04 #@! TD*
D50*
G04 #@! TO.C,Q5*
X147850000Y-107450000D03*
X149750000Y-107450000D03*
X148800000Y-105575000D03*
G04 #@! TD*
D16*
G04 #@! TO.C,R16*
X134300000Y-108650000D03*
X135950000Y-108650000D03*
G04 #@! TD*
D36*
G04 #@! TO.C,R35*
X128437500Y-79050000D03*
X130262500Y-79050000D03*
G04 #@! TD*
D13*
G04 #@! TO.C,U15*
X177600000Y-86300000D03*
X177600000Y-85650000D03*
X177600000Y-85000000D03*
X177600000Y-84350000D03*
X177600000Y-83700000D03*
X177600000Y-83050000D03*
X177600000Y-82400000D03*
X177600000Y-81750000D03*
X177600000Y-81100000D03*
X177600000Y-80450000D03*
X177600000Y-79800000D03*
X177600000Y-79150000D03*
X170400000Y-79150000D03*
X170400000Y-79800000D03*
X170400000Y-80450000D03*
X170400000Y-81100000D03*
X170400000Y-81750000D03*
X170400000Y-82400000D03*
X170400000Y-83050000D03*
X170400000Y-83700000D03*
X170400000Y-84350000D03*
X170400000Y-85000000D03*
X170400000Y-85650000D03*
X170400000Y-86300000D03*
G04 #@! TD*
D25*
G04 #@! TO.C,C5*
X154200000Y-90550000D03*
X154200000Y-88650000D03*
G04 #@! TD*
D51*
G04 #@! TO.C,D6*
X157650000Y-120000000D03*
X154350000Y-120000000D03*
G04 #@! TD*
D14*
G04 #@! TO.C,C43*
X170350000Y-73150000D03*
X168450000Y-73150000D03*
G04 #@! TD*
D52*
G04 #@! TO.C,D1*
X164900000Y-103150000D03*
X164900000Y-106450000D03*
X169800000Y-106450000D03*
X169800000Y-103150000D03*
G04 #@! TD*
D37*
G04 #@! TO.C,C51*
X141000000Y-69775000D03*
X141000000Y-68225000D03*
G04 #@! TD*
D14*
G04 #@! TO.C,C10*
X158550000Y-102100000D03*
X156650000Y-102100000D03*
G04 #@! TD*
D36*
G04 #@! TO.C,R36*
X189287500Y-81900000D03*
X191112500Y-81900000D03*
G04 #@! TD*
D53*
G04 #@! TO.C,U18*
X145305000Y-67985000D03*
X145305000Y-69255000D03*
X145305000Y-70525000D03*
X145305000Y-71795000D03*
X145305000Y-73065000D03*
X145305000Y-74335000D03*
X145305000Y-75605000D03*
X145305000Y-76875000D03*
X145305000Y-78145000D03*
X145305000Y-79415000D03*
X145305000Y-80685000D03*
X145305000Y-81955000D03*
X145305000Y-83225000D03*
X145305000Y-84495000D03*
D54*
X148345000Y-85745000D03*
X149615000Y-85745000D03*
X150885000Y-85745000D03*
X152155000Y-85745000D03*
X153425000Y-85745000D03*
X154695000Y-85745000D03*
X155965000Y-85745000D03*
X157235000Y-85745000D03*
X158505000Y-85745000D03*
X159775000Y-85745000D03*
D53*
X162805000Y-84495000D03*
X162805000Y-83225000D03*
X162805000Y-81955000D03*
X162805000Y-80685000D03*
X162805000Y-79415000D03*
X162805000Y-78145000D03*
X162805000Y-76875000D03*
X162805000Y-75605000D03*
X162805000Y-74335000D03*
X162805000Y-73065000D03*
X162805000Y-71795000D03*
X162805000Y-70525000D03*
X162805000Y-69255000D03*
X162805000Y-67985000D03*
D55*
X151850000Y-73800000D03*
X151850000Y-75325000D03*
X151850000Y-76850000D03*
X153375000Y-73800000D03*
X153375000Y-75325000D03*
X153375000Y-76850000D03*
X154900000Y-73800000D03*
X154900000Y-75325000D03*
X154900000Y-76850000D03*
G04 #@! TD*
D56*
G04 #@! TO.C,U12*
X176300000Y-117850000D03*
X174000000Y-117850000D03*
D57*
X174000000Y-124150000D03*
D56*
X171700000Y-117850000D03*
G04 #@! TD*
D58*
G04 #@! TO.C,D3*
X196200000Y-116700000D03*
X192200000Y-116700000D03*
G04 #@! TD*
D26*
G04 #@! TO.C,D8*
X191087500Y-77700000D03*
X189212500Y-77700000D03*
G04 #@! TD*
D40*
G04 #@! TO.C,C50*
X165000000Y-88225000D03*
X165000000Y-89775000D03*
G04 #@! TD*
D11*
G04 #@! TO.C,C33*
X169000000Y-118050000D03*
X169000000Y-119950000D03*
G04 #@! TD*
D23*
G04 #@! TO.C,C31*
X185050000Y-102000000D03*
X186950000Y-102000000D03*
G04 #@! TD*
M02*
